<?xml version="1.0" encoding="UTF-8"?>
<svg id="Layer_1" xmlns="http://www.w3.org/2000/svg" version="1.1" viewBox="0 0 2196 2264">
  <!-- Generator: Adobe Illustrator 29.8.1, SVG Export Plug-In . SVG Version: 2.1.1 Build 2)  -->
  <defs>
    <style>
      .st0 {
        fill: #e7e7e7;
      }
    </style>
  </defs>
  <path class="st0" d="M1644,1628c-2.38,1.34-12.39,7.54-13.99,5.99-.13-10.12,12.87-15.14,17.37-20.6,3.14-3.8,4.33-11.14,7.7-15.32,2.11-2.62,23-22.7,24.66-23.05,3-.63,5.96,1.95,10.19.04,1.68-.76,10.22-9.89,12.03-12.11,29.3-52.05,65.99-97.42,88.98-153.02,13.31-32.17,35.04-101.28,31.1-134.98-.7-5.95-4.5-16.06-9.68-7.51-5.75,9.49,5,11.55,5.67,13.98,1.12,4.05-.04,24.55-5.02,24.54-10.67-5.35,3.41-16.94-4.98-21.96-9.76,55.15-31.98,108.37-56.3,158.72-20.67,42.79-40.95,75.92-71.77,112.23-6.19,7.29-24.01,21.69-26.97,29.14-1.48,3.75,2.22,9.5,1.03,13.91-6.1-1.82-13.76,4.54-18.01-1.03-1.42-5.57,18.35-21.62,22.83-27.13,23.79-29.26,55.93-76.51,63.63-112.37,2.68-12.47,19.47-21.24,19.68-22.77.49-3.49-3.28-8.51-1.79-15.25,2.32-10.44,17.34-28.93,22.04-40.04,12.21-28.86,26.39-84.22,28.39-115.16.39-6.05-2.8-12.22,1.2-18.24l-5.98,1.98v-11.99s7.97,1.99,7.97,1.99c-.64-9.85,2.18-19.44-2.6-28.44-1.4-2.65-5.1-3.7-5.35-4.95-1.41-7.02.79-15.02-4.06-22.59-9.59,4.11-4.15,15.75-8,23.99-15.48-2.08-8.2-11.08-7.89-20.92.47-15.22,1.73-39.82-.04-54.13-.95-7.67-14.3-25.82,1.94-20.94-.59-11.5.86-23.54-.02-34.99-.74-9.67-5.83-45.56-8.92-53.08-2.4-5.84-8.79-6.41-9.22-10.98-.82-4.84,5.57-8.71,5.84-12.28.15-1.97-5.9-11.86-4.64-16.72-4.85-4.25-2.58-.9-2.26,2.24.34,3.38,4.25,15.95-3.81,11.83-6.17-19.68-11.84-39.72-18.93-59.07-3.27-8.92-16.09-44.64-20.96-49.04-7.56-6.82-8.21-4.04-13.98-16.08-1.21-2.52-1.26-5.16-1.1-7.87-3-.24-4.75-.79-4.04,3.04,1.15,6.24,10.68,19.34,13.11,28.91,3.98,15.67,6.82,35.76-6.06,48.02-8.35-9.65-16.85-20.65-21.12-32.85-7.38-21.13-11.71-26.54-20.63-45.37-9.63-20.32-6.86-24.68-7.1-44.73-.08-6.58.43-26.29-1.62-30.57-6.18-12.94-28.23.44-39.34-6.64-3.45-2.2-20.4-34.41-20.8-39.38-.37-4.67,1.87-8.24,1.61-11.42-.87-10.76-3.22-22.16-3.99-33,7.23,5.85,15.35,2.91,21.8-2.97-4.42-6.14-11.6-25.73-4.97-31.24,4.06-6.65,20.48,10.07,19.18,1.19-.74-5.07-8.48-14.64-11.01-21.01-12.19-30.77-18.38-55.95-40.99-83.01-2.08-2.49-9.9-7.02-10-7.96-.86-7.68,11.9,3.11,12.94,3.02l-1-4c7.15,2.75,14.76-.42,20.74.09,9.49.8,19.98,9.47,27.9,7.92,2.18-5.59,10.34-5.73,12.39-10.02,2.37-4.97-.2-15.56,6.98-19,11.91-5.7,29.04,12.81,40.19-1.88,7.32-9.65-6.85-12.8-9.67-15.63-1.64-1.64-1.78-5.51-4.61-8.38-5.01-5.07-13.11-7.75-18.93-15.08-2.7-3.4-6.76-13.17-7.4-13.61-3.47-2.37-14.73-5.66-22.19-10.81-12.68-8.76-28.28-23.49-28.38-39.62,6.56,2.91,12.49,8.17,18.92,11.08,3.28,1.48,7.91.35,12.01,1.99s18.73,19.79,18.07,8.95l-43.86-29.17-24.11-23.89c-1.49-4.79,20.3,11.86,21.87,12.15l12.11-4.13-37.95-30.01,7.97-3.02c2.68-2.77-11.57-14.12-14.65-13.66-2.6.39-6.57,5.59-9.49,6.71-7.62,2.91-17.6-8.6-25.87-9.01,10.94,13.05,30.46,18.2,38,33.96-2.22.35-4.01-.17-6.06-.92-3.95-1.44-52.11-33.35-54.06-35.94-1.84-2.44-2.32-4.05-1.87-7.11,1.78-1.95,15.59,8.84,19.21,9.8s2.93-.92,2.78-3.78l-121.98-56.06c-.48-3.6,4.34-1.81,6.47-1.47,27.53,4.37,60.05,23.88,86.53,33.48,3.21-2.1-5.32-10.68,1.95-9.96l19.02,13.01-5.98,6.95,14.89,6.15,4.12-6.13c7.48,2.96,7.36,9.81,16.98,5.98-4.37-14.83-16.62-5.99-26.11-16.87-8.55-9.81-5.44-18.61-20.07-29.93-18.75-14.52-49-24.85-69.81-37.2,0-4.1,7.91-1.58,10.08-1.07,8.81,2.11,41.5,20.77,47,13.17,1-1.38-4.9-18.68-5.54-19.63-2.59-3.84-28.39-7.41-31.55-16.43,13.59-2.03,23.97,12.06,36.01,7.96l-6.17-22.89,4.14-4.06-13.95-10.03,9.96-5.02c-3.33-4.75-7.44-7.16-5.99-13.97l19.09.09c5.83-11.37-12.39-10.63-8.14-20.12,3.19-7.12,18.09,3.27,25.03,0l-3.93-11.01,6.53-2.96,1.45-5.02c-22.83-18.08,12.02-5.52,21.95-7.02l-7.95-10.99c1.48-1.83,2.39-2.82,4.91-3.07,11.43-1.12,48.93,25.13,60.13,32.05l-3,7.05,17.87,13.99-7.97,3.03c4.99,8.64,7.21,10.63.47,19,.16,2.89,33.82,24.22,38.87,26.65,2.9,1.39,5.11,3.02,8.66,2.32,1.19-12.18-9.32-12.1-15.87-17.11-6.87-5.26-12.59-13.53-22.1-14.91l13.97-6c.28-2.87-2.76-1.72-4.67-4.42-14.87-21.09,6.79-11.98,17.63-3.51,6.07,4.74,13.39,15.58,19.2,18.8,4.78,2.64,15.41,2.8,16.95,5.05,1.8,2.62.29,10.55,4.89,14.09-3.56,3.23-24.06-20.87-25.99-4.02,8.09,2.64,11.78,10.56,21.14,11.91,11.68,1.68,4.44-8.55,9.82-5.85l68.04,51.97c8.37-18.64-5.43-31.35-17.01-43.97,9.1-2.44,10.52,7.1,17.99,7.97,3.83-12.02.63-24.88,2.18-36.82,3.2-24.59,25.44-45.77,49.31-50.69l223.35-.31c23.95,4.93,41.8,21.71,49.05,44.95,4.87,195.57.83,392.06,2.03,587.97,1.98,33.79,12.89,65.71,19.46,98.54,4.52,22.59,16.62,68.87,16.25,89.47-.21,11.63-12.52,3.23-13.66,14.9h-2.94c-18.62-21.39-7.21-51.42-13.95-78.06-.63-2.47-2.06-9.59-5.05-9.92.11,70.33-.18,140.72-.1,211.07.37,313.37-.14,628.06.15,941.99-3.68,35.18-33.79,62.4-69.07,62.92-3.76.06-7.67-2.11-11.92-2.09-58.55.36-131.28,5.07-188.15.16-65.93-5.69-57.79-81.57-57.02-129.16.06-3.49,4.19-14.05-1.87-11.94-6.75,3.93-11.53,12.82-20.02,9.01-1.07-6.64,6.6-6.46,9.19-8.78s5.19-6.7,7.54-8.44c4.4-3.27,19.08-8.6,21.25-13.8,4.1-9.83-15.39,9.5-15.97,7.02-.32-2.94,1.45-5.74,1.25-8.63-.17-2.6-.11-12.47-4.22-11.33-5.31,1.37-10.57,10.6-14.49,11.67s-7.91-1.49-10.63-.58c-4.44,1.48-21.46,17.57-28.04,21.75-29.51,18.73-53.54,33.03-82.05,53.95-13.65,10.02-22.03,10.29-33.92,16.08-26.44,12.89-51.45,29.21-79.84,38.16l-1.82,3.61,3.63,6.08c-.79,5.04-37.23,17.2-44.34,19.78-45.51,16.53-104.98,35.1-152.79,41.21-16.1,2.06-56.63.94-68.6,7.4-3,1.62-4.55,5.19-7.12,6.88-9.07,5.92-73.14,9.53-87.94,10.06-52.13,1.87-98.92-4.1-150.1-8.06-19.7-1.53-36.83,1.49-57.08-2.93-10.36-2.26-15.65-12.21-19.9,4.9,10.47.3,24.73,3.71,31.99,11.99-17.2-2.84-33.88-2.09-49.98-10.01l11.97-4.96c-5.24-7.37-8.28-11.4-16.61-15.39-27.33-13.07-102.41-22.67-122.11-39.49-2-1.71-.59-4.82-2.49-6.29-8.43-6.47-50.47-19.12-64.19-25.42-3.05-1.4-5.75-5.61-7.86-6.03-3.05-.6-6.88,2.92-10.08,3.13-6.71.45-18.76-15.57-24.82-20.36-11.34-8.95-56.79-31.42-60.77-39.29-.92-1.81.38-4.46-.3-5.92-2.73-5.84-67.63-45.21-78.59-53.12-22.46-16.2-56.8-41.28-77.1-58.9-6.73-5.84-15.16-12.19-13.05-21.93,4.06-4.2,25.64,21.32,29.96,25.01,86.38,73.67,202.17,146.65,310.08,183.92,2.99,1.03,14.52,5.54,15.93,1.08-8.84-3.45-22.33-6.07-30.43-10.16-16.93-8.57-33.74-23.63-53.58-30.84-7.08-2.57-25.61-4.63-27.97-6.03-1.55-.91-10.35-12.8-15.34-16.66-8.01-6.19-18.15-9.97-26.5-15.5-34.77-23.03-69.52-46.2-103.18-70.83l-2.96.97,5.98,11c-4.65,3.98-18.35-11.74-23.17-13.96l2.33-8.03c-16.6-16.04-32.41-33.18-50.2-47.94-3.51-2.91-17.57-14.99-19.97-16.04-7.39-3.23,2.4,10.61,1.01,11.98-11.99.29-10.39-7.84-15.99-14.98-9.66-12.32-17.64-24.09-27.16-36.85-8.05-10.79-42.83-44.08-44.29-53.45-.32-2.03,2.01-5.1,1.26-6.39-.8-1.39-19.36-16.17-23.74-21.38-5.13-6.09-21.1-33.86-22.9-35.1-3.66-2.55-8.11-1.08-11.15-2.85-3.45-2-4.62-11.33-6.47-12.55s-5.62-.08-8.68-2.28c-1.49-1.07-5.56-7.07-8.87-10.17.51,2.99-.35,6.82-.01,9.99-1.84.26-2.54.22-4.03-.95-3.08-2.42-20.24-28.67-17.95-31.03,10.03-.59,9.55,11.7,14.62,17.39,1.65,1.85,5.38,2.74,7.37,4.6-1.44-8.38-14.42-23.43-19.09-31.91-8.09-14.71-16.71-30.16-24.13-44.6-1.87-3.65-2.78-10.81-6.73-14.56-1.19-4.17,2.82-3.43,5.56-2.48,16.41,28.88,32.2,60.73,50.7,88.23,1.38,2.05,4.02,6.26,3.65.36-13.44-27.12-31.12-52.5-44.33-79.68-2.4-4.93-9.74-19.36-10.75-23.33-2.08-8.15,2.73-14.47,1.18-20.62-.69-2.73-7.85-2.39-6.04-7.38l3.96-1.02-7.01-5,1.01,5.97c-4.93,4.12-16.71-23.08-18.34-26.63-13.02-28.37-25.9-69.05-34.64-99.36-4.49-15.58-9.75-31.56-9.03-47.99-4.08,2.34-6.48,7.2-9.61.62-.11-18.43-12.32-42.39-12.52-59.76-.02-1.63,7.22-8.21,5.94-21.62-.92-9.65-8.77-19.22-9.29-24.55-.38-3.86,3.46-8.57,3.52-13.67.06-5.49-3.48-11.94-4.01-18.04-3.13-36.14-9.34-99.87-6.1-134.06,1.05-11.11,10.11-24.82-1.89-32.91-2.49,5.91.06,10.88.08,16.9.2,52.04-1.35,104.32,1.92,156.07.52,8.23,5.54,23.61,2.52,30.51-1.24,2.84-.5,3.07-4.53,2.5-1.72-2.14,3.71-14.11-4-11.98-.78,12.98.7,25.69,2.47,38.51,5.19,37.58,17.82,75.65,27.37,112.63,2.88,11.15,6.62,26.86,7.95,38.09,1.01,8.49-5.64-6.6-6.16-7.88-17.8-43.5-29.55-109.84-37.76-156.2-36.51-206.17,1.42-414.63,85.76-604.5,34.76-78.26,82.32-150.02,127.52-222.48,4.27-6.84,17.88-23.18,19.95-28.19.96-2.33-3.23-3.7-2.26-5.98.4-.93,6.65-6.84,8.15-8,37.05-28.74,73.41-65.67,108.97-97.03,48.15-42.46,87.86-79.67,144.68-111.32,13.05-7.27,48.27-27.98,60.57-29.43,2.92-.34,5.84-.35,8.76-.22.64,2.91-.29,3.24-2.09,4.89-11.01,10.08-46.93,24.51-62.94,35.06-18.01,11.87-35.88,24.37-53.6,36.4-17.14,11.63-28.06,22.16-46.43,33.57-7.46,4.63-13.16,10.72-19.96,16.07l5.03,5-55.98,54.02c8,7.63,11.78-5.07,18.97-5.03,4.53,7.31-5.04,7.76-8.83,11.25-10.67,9.81-24.3,23.19-34.25,33.74-8.87,9.39-18.37,19.34-23.9,31.02l51.88-53.1c40.96-21.29,72.32-64.01,109.17-90.83,59.58-43.36,157.01-92.72,227.91-114.09,36.11-10.89,107.95-29.26,144.14-30.02,8.47-.18,16.98,4.27,23.97,4.13,4.44-.09,7.3-3.16,9.92-3.28,5.76-.25,15.73,4.77,26.15,3.36,3.71-.5,2.56-3.7,4.24-4.1,19.98-4.72,47.15.51,67.82,1.77,3.82.23,7.65-2.63,11.4-1.59.89.25,11.56,10.71,13.38,12.79-13.41,9.89-12.13-7.25-23.93-4.95l-1.15,6.07h-17.78c-2.26-13.9-16.54-4.82-26.8-5.81l-2.33,5.65,13.99,2c-36.54-2.08-72.72,2.16-108.82,5.98l-1.15,6.03,43.16-7.84c26.54,2.07,58.98-5.47,85.87-2.2,14.3,1.74,13.1,14.28,25.93,8.02l-1,4.01c6.54,1.21,1.7-5.45,9.03-4.07,5,.94,3.92,5.3,6.44,6.09,3.18.99,22.39,2.77,25.45,2.13l1.22-5.9c11.4-2.51,19.4,5.89,29.84,8.8,14.16,3.95,29.73,3.38,44.03,6.98-3.46,13.8-12.1,2-17.79.88-21.79-4.29-48.9-2.65-71.28-2.81-5.02-.04-14.05-4.72-16.91,1.89,10.34.41,24.65-.22,34.57,2.1,1.44.34,1.33,3.07,3,3.72,9.96,3.91,10.56-1.39,15.63-1.77,3.27-.24,19.7-.3,21.57.2,5.04,1.36,1.11,4.9,1.23,7.76l-11.99-3.97c7.35,11.31,25.08,8.38,36.46,10.52,53.68,10.11,108.28,22.66,159.04,42.99,4.34,1.74,4.83,2.77-.34,2.35-34.38-12.42-70.5-18-105.95-26.09-5.65-1.29-11.85-5.62-18.77-7.23-5.82-1.36-46.38-6.03-48.44-4.54-.17,1.17,1.1,2.5,1.98,3,7.01,4.03,41.15,6.22,52.81,9.19,39.5,10.05,63.75,23.29,99.25,38.75,14.71,6.41,43.35,10.67,54.58,17.42,3.82,2.3,3.85,3.2,3.36,7.62l-85.96-23.02-34.52-5.48c-21.8-8.42-46.35-9.34-69.5-9.48,7.42,9.06,23.79,5.99,34.07,10.92,4.75,2.28,5.18,5.81,7.48,7.02s21.23,5.1,25.6,5.9c7.89,1.44,15.52-.93,23.83,4.18,6.14-.26,2.15-2.4-.57-3.44-3.89-1.49-8.83-1.2-10.4-6.57,28.47-4.04,46.65,25.23,74.56,26.42l21.43,11.54c-26.85-3.26-53.32-14.34-79.9-21.07-47.91-12.12-97.61-18.71-147.1-22.9-26.1-2.21-69.52-7.45-94.11-4.12-6.57.89-7.27,5.18-11.91,6.09-21.16,4.11-60.22-.12-83.94,2.06-2.54.23-46.74,13.12-38.06,1.96l15.01-5.98c-9.72-2.19-17.12,1.91-25.45,3.56-7.2,1.42-14.51-6.37-6.55,10.41l-29.99,6v-5.98s10-3.99,10-3.99c-22.5,2.28-45.5,10.47-67.04,17.94-26.01,9.02-51,20.95-76.96,30.07-1.8,7.78,6.97,9.6,13.05,10.02,11.91.82,21.35-5.55,32.93-6.07-.56-3.82-6.28-2.51-7.7-7.34-2.57-8.71,4.6-9.46,11.7-8.63,2.99,2.75-9.18,13.07-1.02,11.99,22.36-7.46,43.91-16.84,66.6-23.43,52.39-15.21,106.9-23.52,161.35-24.65,28.54-.59,56.9.96,85.07,5.07-8.4,16.54-25.29,6.06-39.02,5.04-18.76-1.39-31.36,2.88-48,3.93-32.84,2.09-75.81.12-107.09,6.91-10.32,2.24-18.46,12.86-27.33,14.67-10.15,2.07-23.02.75-34.95,3.05-28.12,5.43-35.94,15.19-58.21,27.79-16.59,9.39-37.09,13.23-52.78,23.22-13.87,8.83-9.25,7.62-26.07,13.93-12.38,4.65-29.32,21.66-40.53,29.47l4.64.64,37.86-26.12c10.88-4.91,9.6,2.82,10.48,2.47,12.52-8.4,26.04-15.9,39.66-22.35,22.01-10.41,69.12-32.24,91.27-36.84,4.96-1.03,9.77.79,12.31.08,37.49-10.43,76.07-28.14,115.77-17.9-12.79,14.99-31.53,6.81-46.89,6.94-7.92.06-26.47,4.86-35.23,6.94-11.07,2.62-20.39,10.53-33.88,7.12l.02,8.03c-15.01-.24-29.19,4.55-42.73,10.27-21.68,9.16-51.62,25.65-72.63,37.37-179.88,100.33-313.36,283.92-380.68,476.34-6.12-2.9-5.13-9.46-3.91-14.77,12.46-54.44,50.74-122.39,79.59-170.57,56.19-93.84,136.43-190.58,225.35-254.65,4.15-2.99,17.89-7.07,13.97-12.03-4.14.02-21.92,13.28-23.01,18.03l-4.95-7.99c-40.31,24.31-73.55,57.42-107,89.99,6.3-21.66,30.28-38.75,43.97-57.01-3.4-1.64-10.6,4.94-12.99,7.01-3.52,3.06-4.78,11.34-11.02,6.98-.52-2.58.56-4.11,1.92-6.08,8.16-11.85,36.83-34.58,49.14-44.86,20.81-17.37,42.86-33.36,64.94-49.07.82-4.01-1.71-3.58-4.55-2.55-15.91,5.76-55.68,37.57-70.38,49.62-66.74,54.69-125.15,119.85-178.91,187.09-3.67,4.86-11.91.95-15.18,4.82-2.14,2.53-2.11,10.53-6.97,13.05l4.1,2c.71,3.91-4.92,10.28-8.23,11.92-1.91.95-4.59-.42-5.95.25-2.51,1.24-28.03,40.31-31.54,46.21-3.68,6.19-30.89,56.07-28.39,58.59,20.47,3.59-4.5,15.57-9.29,20.72-3.45,3.7-9.23,15.31-8.69,20.21.42,3.73,5.59,6.67,3.86,11.87l-11.66,3.44-3.96,12.88c10.77,3.88,4.62,18.44-1.58,24.73l-8.67-1.81c-.89,4.63,4.48,5.69,5.58,9.39,3.55,11.97-20.83,88.95-24.97,108.23-2.15,10.01-13.46,65.39-10.61,70.38l5.04-.16c5.19,10.03-4.01,10.66-6.61,15.59-3.72,7.04.08,15-3.47,21.5l4.02-.92c6.88,4.6-.02,37.6,5.04,46.96l-10.06.05c1.34,17.92-.62,35.95.05,53.96,1.05,28.14,8.18,61.03,8.13,88.01-.02,9.35-6.25,19.01-4.15,29.02h5.98s.02-18.02.02-18.02l5.93.03c-.61,7.66,7.46,14.55,8.04,21.17.41,4.65-2.13,8.86-2.05,13.71.15,8.89,6.12,19.38,4.06,29.09l-7.97-3.99c-.19,5.45-.41,10.67.92,16.06.53,2.14,4.53,10.83,7.04,11.93,1.68-6.66-6.23-16.19,2-19.99,18.08,63.16,36.95,126.8,68.41,184.61,11.25,20.67,21.64,42.4,33.27,62.73,3.58,6.25,33.53,50.43,36.38,51.81l2.55.54c9.48-8.87,18.82,6.6,31.41,2.29,2.53-2.21-19.22-29.49-21.59-33.39-11.77-19.33-33.15-60.86-38.06-82.09-1.12-4.84.24-3.59,3.79-5.62l-4.18-12.91c-5.7,2-8.26,2.41-11.93-3.02-1.52-7.06,10.15,3.13,7.95-3.93-2.04-6.54-6.78-20.62-9.91-26.1-4.27-7.48-13.27-10.77-15.16-16.84-2.98-9.52.46-22.7-4.43-33.57-4.15-9.22-17.39-11.6-20.04-22-2.83-11.11,4-7.97,5.34-11.78,1.95-5.55-3.17-13.05-4.48-19.04-4.87-22.3-8.41-48.17-14.28-69.72-3.14-11.53-11.39-24.05-12.84-35.16-2.14-16.34,3.69-36.82,2-49.95-.25-1.92-5.47-9.43-6.14-17.92-1.91-24.06,1.66-57.04-1.87-80.03-.69-4.47-13.29-8.45-5.17-18.92l6.99,9.99,2-50c-15.33,1.09-.09-8.55.12-9.37,1.57-6.42-3.92-10.22-4.28-15.59s2.99-12.48,3.98-18.24c.85-4.97-.79-10.86.57-15.43s8.9-5.77,10.65-9.35c2.24-4.58.53-11.02,1-16.01,3.59,1.34,5.87,9.78,6.11,13.01.56,7.66-3.32,11.99-3.97,18.14-11.34,107.22-13.53,208.49,8.82,314.86,5.92,28.17,16.48,54.65,25.04,81.97l7.99-4.01c-9.41-23-8.2-53.54-16.53-76.46-2.39-6.59-7.6-11.27-10.56-17.44-7.09-14.75-1.85-19.97-2.96-35.05-1.15-15.59-9.51-34.54-9.22-50.39.1-5.67-.36-27.35-.09-29.29.57-4,4.76-9.44,4.93-16.35.25-10.21-3.85-22.35-3.66-34.08,4.84-298.48,180.36-597.1,441.48-742.52,4.84-2.7,38.4-18.65,40.6-16.4l.02,6.01c42.65-12.63,91.45-35.38,136.66-35.24,11.45.04,8.46,6.64-.13,8.77-32.06,7.99-63.69,11.57-96.53,21.47-15.05,4.53-31.41,13.03-45.09,16.92-6.21,1.77.39-9.68-5.87-7.9-6.64,3.96-8.55,9.29-17.03,5.98-.13,1.3.16,2.69,0,3.99-1.84.31-4.06-.22-5.99.01v3.98s5.98,0,5.98,0c.18-1.3-.15-2.71,0-3.99,3.56-.59,7.34-.27,10.97-2.03l.06,4.07-94.91,55.09c-193.84,132.07-359.29,419.04-362.13,655.91-.17,13.82,2.79,27.37,2.08,42.03-.76,15.66-1.18,18.57-.23,34.09,5.09,83.69,19.02,157.29,48.12,235.87,11.71,31.63,26.81,61.59,39.01,92.99,3.34,3.85,10.09-.66,13.55,6.43,4.85,9.93-1.58,9.1-2.03,9.96-3.67,7.08,39.35,65.78,46.72,75.37,7.46,9.72,25.06,34.42,32.93,41.09,5.23,4.42,9.46,2.84,13.82-1.88-50.32-55-84.25-121.59-115.01-188.96-5.97-5.62-.48,4.33-1.14,6.62-.72,2.52-3.23,3.85-5.79,3.33l-6.01-19.98,8.01-1.02c-30.97-75.08-49.35-155.03-56.91-235.99-2.89-30.97-4.44-63.81-3.19-96.09.6-15.45,4.69-32.2,4.09-47.92l-5.08-.83c-1.37-4.56-2.7-17.82,2.1-20.16l6.95,7.97,2.95-30.06,11.05-35.92-9.96,83.01c-.36,7.31.34,14.65-.04,21.96-3.61,69.27.45,134.97,12.65,203.39,6.35,35.58,14.77,71.55,26.36,105.61,14.37-3.53-2.78-41.76-5.25-52.72-5.04-22.43-9.48-45.58-11.5-68.51-.2-2.24-1.84-7.18,1.74-6.73,13.2,50.7,23.42,102.6,43.97,151.01l-4.92,2.98-20.03-23.99c-2.11,1.3-1.02,6.38-.51,8.51,3.67,15.32,19.72,47.22,27.17,62.83,23.35,48.93,51.07,96.49,86.32,137.69l6.04-2.1c-.39-6.23-6.09-11.14-7.65-16.3-.87-2.88-1.45-5.45,2.62-4.62l51.02,63.01-2.99,4.93c-3.47-6.5-9.93-1.92-13.12-3.05-4.5-1.59-12.63-15.33-16.9-18.91-1.52-.29-1.25,1.89-1.02,3.01,1.44,7.26,28.69,29.24,32.59,38.48,1.15.98,3.06.23,3.44.5-3.18-7.97-10.06-12.94-9.01-19.99,10.74,9.07,16.41,23.15,32.72,20.27l2.28,9.71c-5.51,2.08-8.23-5-11.22-5.51-8.16-1.4-4.09,3-14.77-4.48.99,2.47,3.17,5.91,3.53,7.49.67,2.93-2.01,6.18-.69,8.53,2.29,4.07,11.97,3.14,16.29,5.84,7.6,4.75,15.4,22.29,29.38,30.62,25.52,15.22,52.54,19.43,79.37,38.63,60.9,43.61,83.14,44.92,150.64,69.36,22.85,8.27,31.97,14.97,57.94,20.06,2.56.5,10.43,8.44,9.56-.53-12.73-2.19-25.98-6.23-38.02-11.01-37.99-15.09-77.8-33.34-112.01-56.06-2.3-1.53-5.18.51-3.97-4.94,13.49-.35,26.27,14.38,38,17.16,3.83.91,6.43-.94,8.74-.59,1.61.25,12.63,7.22,7.29.38-17.56-6.78-45.39-29.92-62-34.08-8.12-2.03-8.2,1.78-8.05,9.13-3.24,3.38-31.97-16.83-37.01-20-4.17,16.94-14.27,1.63-21.1-2.9-23.05-15.25-50.85-39.37-70.94-59.06-10.04-9.84-38.2-38.61-45.04-48.96-1.63-2.47-3.9-9.13,1.07-7.08s18.95,20.45,23.68,25.3c.78.8,6.57,5.11,5.34-.31-9.31-5.88-13.71-17-20.92-25.09-6.5-7.3-8.83-7.9-15.7-17.28-.44-.59-6.74-5.1-5.37.33,5.43,4,6.93,8.24,5.97,15.02-9.75-2.39-8.69-11.17-13.07-17.91-2.59-3.99-23.46-21.18-18.9-26.08l9.98,3c-4.55-5.89-7.69-10.64-13.99-15.01.2,1.43.75,5.7-.99,5.99-9.8-5.13-11.39-14.57.99-5.99-.99-6.96-20.58-38.68-25.95-40.9-2.42-1-6.66,3.61-8.99-5.28-1.17-4.46,1.14-7.21-.5-11.17-20.44-47.94-55.57-101.03-72.92-149.25-4.16-11.55-1.42-18.4-1.64-30.38-.02-1.72,4.27-1.33,5-1,2.74,1.23,16.09,49.13,18.97,57.03,46,125.79,135.09,249.18,241.08,330.92,17.37,13.4,37.85,22.84,53.98,38.03,5.69.66,2.63-4.73,1.07-7.08-10.05-15.17-34.4-23.75-47.11-38.89-1.33-1.58-5.24-4.01-2-6,19.79,5.73,33.51,24.07,51.24,32.76,6.06,2.97,16.75,4.44,19.77,6.23,4.17,2.48,1.91,11.51,9.91,14.16,6.99,2.32,13.12-2.03,20.09-1.18l-11.99-10.99c8.97-3.59,16.14,2.34,19.98,10.02l-5.01,3c17.6,11.38,37.75,25.77,58.92,29.09,7.1,1.11,17.96-.39,22.79,1.21,5.07,1.68,4.46,15.44,17.98,15.05,4.17-.12,10.58-4.06,14-3.49,1.53.25,2.33,4.3,4.55,5.82,16.61,11.31,37.94,11.17,57.71,12.39,2.17.13,7.59,1.28,7.05-2.05-48.73-10.84-93.95-28.68-138.7-50.31-34.92-16.87-61.64-32.51-92.63-55.37-3.85-2.84-14.8-7.14-15.72-8.28-2.41-3,.78-6.13,4.03-6.09,1.98.02,28.38,16.82,34.31,19.75,25.26,12.45,52.04,22.34,77.43,34.57,20.98,10.1,39.79,25.67,63.28,29.7l-1.1-6.15c3.31-1.97,6.29-.83,5.11-5.83-19.41-3.16-42.02-11.75-57.99-23.02,12.93-.33,31.18,7.06,43.95,12.05,7.99,3.12,14.96,9.7,24.05,8.98l-.02,5.98-5.64.25-2.37,9.73c21.14,4.26,42.6,14.36,64,14.02l-9.44-11.54c-12.02-2.94-18.65-10.21-31.76-12.27-2.09-.33-4.67-.22-1.76,1.82l4.96,6h-9.99s2.22-13.77,2.22-13.77c7.5-3.07,50.92,6.05,51.44,12.76l-2.82,4.87,2.2,4.14,13.98-2.13c38.15,10.94,78.12,9.62,117.56,10.56,2.97.74,5.53,2.15,7.24,4.79,5.26,8.14-1.89,10.59,16.18,8.79l-3.99,7.99h29c1.23,0,12.56,6.84,13,9.98-8.98.39-18.1-.44-27.08-.06-39.73,1.67-78.41-3.87-117.94-5.9-9.62-.49-19.36.3-28.97,0-3.39,2.56.24,3.63,2.97,3.97,16.33,2.06,32.8,3.25,49.01,6.04-1.78,5.85-7.37,5.32-11.99,6.97,3.91,3.01,14.51,5.09,19.06,5.06,6.65-.04,9.49-5.51,17.82-6.2,15.04-1.24,28.6,9.36,43.71,5.73,4.01-.96,6.63-5.21,10.28-5.39,24.17-1.17,54.07,3.83,78.15,5.77,21.29,1.71,36.91-5.37,56.96-9.99l-6-1.98.03-5.98,8.14.87,2.93,7.17c9.83-3.98,24.1-2.54,33.39-6.58,8.15-3.55,10.19-15.41,21.52-16.46-3.39-8.06-24.77,6.75-27.75-2.25l-.25-6.74c6.92.32,12.98-3.34,19.28-5.83,2.82-1.12,5.84,1.94,4.72-4.17-20.04,6.58-40.71,10.95-61.9,12.09,1.47,19.04-17.34,5.32-14.13-3.92-4.49-1.35-8.5-4.08-11.95.83,17.09,9.44-7.13,15.19-2.01,1.01-6.31-.49-10.38,4.81-16.97,4.12-13.85-1.46,9.06-11.53,13.33-12.75,7.04-2.02,14.49-2.72,21.65-1.36l-2.02,5.98c9.74,2.03,20.78-.06,30.43-2.57,14.61-3.81,12.29-4.31,21.72-12.28,7.57-6.39,21.97-5.5,30.95-11.11l3.93,1.97-1.02,3.98c3.84.48,13.17-.34,15.02-3.87.84-1.59-1.3-4.75-.73-6.75,1.25-4.46,32.21-17.61,38.73-17.55,5.24.05,10.72,3.84,13.15,3.3,2.65-.59,6.33-4.83,9.83-6.13,8.69-3.23,18.11-4.18,26.55-7.44,1.95-.75,25.83-16.6,21.15-4.86-4.51,11.31-25.84,13.49-33.68,22.32l8.07.07,51.91-28.11c-.33-9.1-11.71-.92-13.99-2.99-.58-4.72,4.07-7.51,7.98-8.03l-.96-4.05-4.8-2.19,1.79-5.71c6.08-.24,6.38,3.58,3.99,7.97,2.57,2.19,35.5-17.22,38.21-20.89,3.11-4.22-1.91-16.14,11.79-15.08l.98,5.97c7.65-9.49,21.85-8.44,31.73-14.28,4.61-2.73,11.29-12.63,14.68-13.41s7.87,3.12,10.72.9c2.17-1.69,1.94-7.58,3.49-10.59,6.58-12.82,17.3-17.54,27.5-26.5,6.24-5.48,7.7-14.84,19.6-11.87l3.06,4.47c-1.27,12.73-51.89,50.19-63.8,60.26-24.15,20.41-39.17,35.29-67.45,52.57-3.7,2.26-11.66,1.22-7.55,6.43l18-5.97,1.3,5.82,5.56.28,3.15,7.89c4.65-2.66,1.85-8.67,3.47-11.55,1.14-2.03,13.38-5.96,15.54-9.46.83-4-1.72-3.58-4.56-2.55-5.26,1.91-10.39,8.77-17.43,7.56,1.08-7.32,21.62-21.89,27.04-21.42,1.97.17,3.78,4.53,6.35,5.25,3.83,1.07,22.45-15.07,26.63-18.78,14.02-12.44,25.91-27.64,39.95-40.05,10.4-9.19,15.64-7.93,22.02-20.98,1.05-.59,13.4-7.01,9.99-9.99-3.91-3.42-8.94,7.84-9.99,9.99ZM1554,155.98l-7.98-5.98v3.97s7.98,2.01,7.98,2.01ZM1553.99,179.99c1.74-1.87-9.32-17.04-11.98-13.98l2.12,8.94c3.51-1.53,7.4,7.69,9.86,5.03ZM879.99,174.01c-34.04,7.2-73.19,14.36-105.55,27.43-2.5,1.01-5.88,1.1-6.44,4.54,18.97-2.95,36.83-10.91,55.22-15.76,12.2-3.22,24.37-6.29,36.67-9.33,5.96-1.47,20.47,1.38,20.1-6.88ZM1583.98,196.04c-10.35-3.02-16.82-15.57-27.97-16.03l20.18,16.8,7.79,3.19v-3.96ZM1155.99,214.02h-13.98v1.96h13.98v-1.96ZM1599.84,218.18l-11.83-4.18c-2.72,2.48,15.47,17.74,11.83,4.18ZM1594,236.02c-10.69-1.71-18.46-14.21-30-16.01,5.94,11.81,15.77,14.88,26.99,20.02l3.01-4.01ZM1611.98,230.02c-.23-.34-7.58-2.42-7.98-2.02-5.55,16.91,12.64,8.74,7.98,2.02ZM1527.98,246.04c-1.29-1.5-12.24-6.57-13.97-1.03-.55,1.36,20.51,8.63,13.97,1.03ZM1144,255.98c-5.87-11.72-15.83-4.95-25.99-5.97l2.98,5.19,23.01.78ZM1160,256.02l-8-2,5,5.94,3-3.94ZM1647.98,270c2.89-3-15.16-16.53-17.98-13.98,2.63,9.41,10.32,10.18,17.98,13.98ZM935.99,262.01c-5.67.64-15.02-2.67-17.99,3.97,4.56-1.45,19.44,3.9,17.99-3.97ZM874,272.02h-7.99s0,3.97,0,3.97c3.73.52,6.92,0,7.99-3.97ZM1547.19,288.85c-5.79-3.94-14.46-8.61-21.18-10.84-3.6,3.43,21.43,18.38,25.98,15.97,0-1.38-3.86-4.49-4.8-5.13ZM579.99,280.01c-1.71-1.66-10.43,4.9-12.62,6.35-2.99,1.98-10.14,5.39-9.36,9.63,3.87.13,25.67-12.38,21.98-15.98ZM1638,301.98c-5.54-9.72-15.53-4.39-24.01-3.97-1.34,5.08,3.39,4.69,6.83,6.12l2.31-4.21,14.87,2.06ZM700,338.02c-3.61-.66-6.56,2.7-8,5.96,3.61.66,6.56-2.7,8-5.96ZM1583.99,361.99c3.55-3.36-12.51-13.86-11.95-6.99.14,1.65,8.34,8.85,11.95,6.99ZM1542,357.98c-1.07-3.97-4.27-4.5-8-3.96,1.07,3.97,4.27,4.5,8,3.96ZM353.25,505.27c28.5-37.42,55.63-70.72,87.72-105.3,4.99-5.37,21.77-19.5,24.07-23.94,1.6-3.11-.76-6.05-2.04-5.99-6.66.28-79.34,86.91-88.94,99.02-8.9,11.21-16.77,23.29-25.19,34.86-1.84,2.52-18.84,16.77-6.89,18.08.24-7.61,7.59-11.88,11.28-16.72ZM1670.55,397.42c-1.98-1.56-3.99-7.96-7.58-9.4l-3.06,6.7,8.06,3.35c-6.21,14.67,4.43,12.43,7.16,17.92,1.68,3.39-5.74,14.82,8.11,17.87l3.91-3.97,4.84,2.11-9.93-17.01,4.93-2.98,21,19.99c4.64-12.24-6.68-11.48-12.49-16.05-8.37-6.59-17.63-12.78-24.94-18.53ZM668.01,407.99h2.96c2.37-2.44,5.79-4.14,5.01-7.99l-7.97,4.04v3.95ZM599.99,428.01c-6.17,1.15-12.82,6.76-15.99,11.97,3.45.78,5.25-1.75,7.78-3.21s9.31-4.86,8.21-8.76ZM1723.84,438.17l-7.82-2.17c-.79,3.77,2.53,5.46,5.01,7.98h2.96s-.15-5.81-.15-5.81ZM1711.99,444.01h-2.96s-5.03,5.97-5.03,5.97h7.99s0-5.97,0-5.97ZM1698,495.98c-13.97-15.77-28.72-31.11-46.12-43.1l-15.84,4.12,60.01,59,3-3.99c-1.86-4.57-10.97-4.53-9.14-10.95l8.09-5.08ZM1707.98,464c1.62-2.09-3.33-7.4-5.96-8l.24,5.78,5.73,2.22ZM343.99,466.01c-3.78-.64-6.65,2.34-5.97,5.99l5.98-2.02v-3.97ZM1668.67,501.32c-1.65-1.36-2.57-5.25-4.59-6.39-2.96-1.67-6,.66-6.04,2.06-.15,5.7,28.54,31.94,33.94,25,3.16-4.06-20.31-18.2-23.31-20.67ZM302.02,522c3.26-1.44,6.62-4.39,5.96-8-3.26,1.44-6.62,4.39-5.96,8ZM336,524.02c-3.03-2.88-11.78,10.64-9.98,13.97l9.98-13.97ZM1577.99,560l-9.98.99,9.97,7.01v-8ZM282.02,574c3.26-1.44,6.62-4.39,5.96-8-3.26,1.44-6.62,4.39-5.96,8ZM282,576.02h-3.97s-2.01,9.98-2.01,9.98c1.47,1.93,5.51-8.08,5.98-9.98ZM153.98,890c12.48-37.5,19.37-79.45,32.63-116.39,7.08-19.73,19.69-41.29,25.68-62.32l59.7-119.28c-2.18,3.86-10.12,10.63-11.72,13.18-6.01,9.57-15.05,25.26-20.68,35.41-6.79,12.23-20.4,49.48-28.63,57.54-2.62,2.57-5.58.08-7.04.95-2.17,1.29-10.96,17.61-1.09,11.14l2.83,4.37c-2.98,11.17-10.61,20.92-14.65,31.42-10.31,26.81-40.6,103.31-42.59,127.57-.39,4.72.63,14.12,5.56,16.42ZM235.33,641.35c1.8-2.73,7.25-16.38-.32-11.35l-18.98,38c7.66-4.41,9.1-14.16,13.44-21.59,1.6-2.74,4.92-3.62,5.87-5.05ZM239.99,688.01c-5.76-1.19-3.14,1.84-4.57,4.34-8.44,14.79,4.33,6.08,4.57-4.34ZM219.98,732l6-20c-3.09,2.45-15.96,21.26-6,20ZM215.99,734.01c-5.53-.96-3.38,1.12-4.51,4.37-1.24,3.58-1.67,7.35-3.1,11-1.17,3-10.64,11.63-3.35,14.6,4.37,1.78,5.56-11.89,7.92-14.03l3.04-15.94ZM285.99,818.01c-1.15-1.15-5.95,1.66-5.95,2.99,0,5.54,8.97.03,5.95-2.99ZM134.02,896c6.36-4.64,5.55-16.91,5.96-23.99l-5.87,13.09-.08,10.9ZM133.99,898.01c-6.04-.98-3.19,1.51-4.03,4.86-1.57,6.24-2.44,12.67-1.93,19.12,3.01-1.51,4.58-10.72,5.08-13.89.54-3.37,1.37-6.63.89-10.09ZM239.99,908.01c-6.17-.98-3.18,1.62-3.92,5-1.2,5.49-5.46,15.38-1.06,18.97l4.98-23.98ZM1695.98,934c2.3-3.07-5.96-19.57-9.96-22,.36,6.84,5.85,11.1,3.92,18.62l6.04,3.38ZM149.44,937.43c4.79-5.42.2-12.69-5.42-15.43v18c.18.24,4.92-2,5.42-2.57ZM231.98,952c-.98-3.48,2.41-13.22-1.95-13.98-1.35,5.01-4.64,11.45,1.95,13.98ZM182.02,982c4.78-1.95,4.5-9.23,5.38-13.6,1.15-5.74,2.4-12.99,3.25-18.78.27-1.85,2.22-7.74-1.65-7.58s-13.34,33.99-6.98,39.96ZM229.99,958.01h-3.98s0,9.99,0,9.99c4.52-1.21,4.26-6.18,3.97-9.99ZM117.99,997.99c-2.01-12.41,5.54-21.9,1.99-33.98-2.98-.5-2.48,3.75-2.98,5.96-1.11,4.86-2.64,12.26-2.96,17.06-.26,3.97-2.26,12.8,3.96,10.96ZM234.02,992c6.23-3.13,8.6-13.24,2.97-17.99l-2.97,17.99ZM222.02,984c3.97-1.07,4.5-4.27,3.96-8-3.97,1.07-4.5,4.27-3.96,8ZM165.98,993.99c-1.1-3.95,2.57-14.21-1.96-15.98,1.1,3.95-2.57,14.21,1.96,15.98ZM221.97,1003.99c1.01-2.97,1.22-4.88,1.09-7.99-.08-1.92-.25-10.32-3.04-9.99l1.95,17.98ZM180.02,988c-.48,5.63-7.78,11.15-.99,15.98,9.15-1.59,7.58-12.05.99-15.98ZM163.98,1006l-.97-9.99-3.12,4.99,4.09,5ZM211.98,1113.99c-1.58-10.68,1.38-21.12,2.1-31.08.6-8.19.95-15.7,1.71-24.12,1.53-16.93,3.64-33.81,4.19-50.79-3.76.79-3.62,3.95-4.03,6.95-2.06,15.08-.71,31.05-1.95,43.88-.36,3.75-3.55,7.06-4.06,12.11-1.03,10.19-.37,25.5.06,36.08.1,2.43-1.51,7.44,1.98,6.97ZM113.98,1026l-.97-11.99c-4.42,3.3-4.52,10.03.97,11.99ZM176,1061c.87-9.93,0-21.77,0-32,0-2.09,6.44-10.25-1.99-8.99,3.3,16.98-3.88,35.35-4.09,50.94-.05,4.13-1.15,5.86,4.07,5.04-1.92-5.34,1.69-11.27,2.01-14.99ZM229.98,1058c.33-11.76,8.32-27.49,1.01-37.99-2.94,9.1-4.98,25.11-5.06,34.95-.04,3.98.28,3.22,4.05,3.04ZM109.99,1073.99c-1.11-9.25.99-19.16,1.17-28.03.06-3.01.97-4.93-3.14-5.96-.15,7.64.16,15.33-.03,22.99-.1,4.23-5.57,12.51,2,11ZM1781.99,1088.01c-4.68-.3-3.53-.66-3.99,2.96-.64,5-2.1,35.03.03,37.03,2.5,2.34,3.54-.26,4.49-2.47,4.87-11.45-1.57-25.59-.53-37.51ZM107.99,1111.99l-2.01-11.98h-1.96s0,11.98,0,11.98h3.98ZM107.99,1128.01c-8.6-1.17-2.17,13.51-2.19,17.2-.03,5.37-3.04,10.97-1.78,16.78l3.82-15.34.15-18.64ZM173.97,1153.99c4.61-4.42-2.17-28.74-11.96-25.98-2.47,11.43,5.77,15.16,8.1,22.9.77,2.57-1.86,3.8,3.85,3.08ZM1782,1176v-29c0-.35-3.17-3.54-3.97-3-4.52,10.18-9.02,20.8-3.73,31.7l7.7.3ZM233.98,1231.99l-1.99-62.98-5.98-5c-.8,21.59-.34,41.02,5.03,61.97.58,2.28-.12,6.5,2.94,6.01ZM177.98,1253.99c.84-16.43-2.93-32.76-4.15-48.99-.27-3.6,1.85-7.33,1.65-11.47-.4-8.68-4.78-17.96-11.46-23.52-1.06,4,.65,5.93,1.96,9.01,6.71,15.85,6.61,43.5,8.05,61.95.21,2.7.97,12.1,3.95,13.02ZM113.99,1253.99v-32.97s-3.96-19-3.96-19c-5.58,16.13,1.59,32.54-.03,49.02l4,2.95ZM236.02,1248c5.88-1.62,1.39-7.3,1.96-11.99h-1.96s0,11.99,0,11.99ZM179.99,1256.01c-14.05,3.42-5.19,18.82-3.97,27.98,2.94.17,3.52-7.17,3.74-9.23.66-6.23.09-12.52.23-18.75ZM185.98,1312l-.97-9.99-3.12,4.99,4.09,5ZM189.99,1320.01c-4.88-.66-3.17.04-4.2,2.77-3.7,9.79-.57,15.97,2.24,25.21,2.82,2.83,3.69-.24,4.02-3,.97-8.06-3.55-16.6-2.06-24.98ZM271.99,1346.01h-3.98c-.33,3.81-.38,7.59,3,9.98l.98-9.98ZM154.01,1375.99l7.91-3.19-3.95-12.79c-4.53.18-4.55,15.36-3.96,15.98ZM281.98,1390c.54-3.73.02-6.93-3.96-8-.54,3.73-.02,6.93,3.96,8ZM361.8,1392.2l-9.81-.2c-3.85,3.78,16.08,49.94,19.73,57.33,1.07,2.17,1.82,8.24,5.24,6.65,4.27-1.98,3.2-8.79,2.57-12.5-2.56-15.23-15.55-35-17.74-51.28ZM187.99,1413.99l-7.97-17.99c0,5.79-.16,17.69,7.97,17.99ZM215.99,1497.99c-3.14-8.92-4.15-21.8-6.91-30.07-2.04-6.12-7.72-18.14-10.66-25.34-1.28-3.13-4.83-4.82-5.95-8.05-1.85-5.35.57-15.34-6.45-18.53,3.22,22.19,12.29,40.52,20.08,60.9,1.57,4.11,1.65,8.53,3.17,12.87,1,2.85,2.36,9.68,6.72,8.22ZM1782.02,1478c13.61-9.2,14.46-29.55,19.96-44-8.14,2.75-6.3,11.55-8.57,16.41-4.14,8.88-11.37,17.07-11.39,27.59ZM1818,1464.02c-1.72-1.79-8.86,5.97-9.29,6.64-1.96,3.01-2.15,8.01-4.7,11.32,6.66,4.98,11.83-15.1,14-17.96ZM389.98,1466c-6.96,2.94-7.08,9.54-5.06,16.09,1.04,3.38,23.3,38.57,26.25,41.74,10.07,10.82,8.42-.89,5.18-9.18-6.69-17.11-20.53-31.07-26.37-48.65ZM1775.97,1495.99l2.01-9.99-5.87,7.13-.1,2.86h3.96ZM219.99,1507.99c.52-3.73,0-6.92-3.97-7.99v7.99s3.97,0,3.97,0ZM1767.99,1506.01l-6.38,4.6-15.59,31.39c3.86-2.96,23.43-34.46,21.97-35.99ZM238.7,1551.41c-.98-2.02-10.05-33.03-12.68-29.41l8.97,28.01,20.99,35.99c-1.62-11.43-8.39-21.68-13.34-31.99-.54-1.12-3.48-1.65-3.94-2.6ZM1768,1548.02c-11.69.08-8.26,8.32-11.01,13.97-2.45,5.04-20.28,11.2-16.97,24.01,12.17-2.96,11.46-13.54,15.91-20.57,1-1.59,3.84-2.05,4.8-3.62,2.68-4.37,4.4-9.5,7.28-13.79ZM420,1563.98c-2.64-4.94-4.37-11.45-9.98-13.98.64,5.55,2.11,16.18,9.98,13.98ZM437.97,1552.01c-5.79-1.42-5.07,6.65-7.97,9.97l10.01-1.99-2.04-7.98ZM1728.02,1568c3.65-2.13,8.48-5.8,7.96-10-3.65,2.13-8.48,5.8-7.96,10ZM436.72,1593.3c-1.38-1.8-1.63-4.74-3.65-7.36-5.46-7.08-.38,6.29,1.24,8.83,2.48,3.89,8.97,10.79,11.74,14.7,2.52,3.57,3.14,11.16,9.95,10.5-4.76-6.88-8.72-14.65-13.59-21.44-2.08-2.89-4.46-3.65-5.69-5.25ZM1715.99,1586.01h-3.96s-2.01,7.99-2.01,7.99l5.96-5.03v-2.96ZM1739.99,1588.01c-13.97,2.45-17.98,14.86-18.37,27.61l-15.3,6.69-1.18,13.84c-10.26,2.09-19.9,3.98-23.12,15.86,17.03-.89,26.63-13.61,36.86-26.12,2.82-3.45,4.06-8.77,7.13-12.87,6.33-8.45,17.31-11.39,13.99-24.99ZM1696.79,1610.87c2.82-2.93,6.6-2.69,5.19-8.87-.8-.9-9.94,7.5-8.01,10.97,2.17,3.28,1.88-1.13,2.81-2.1ZM516,1715.98c-8.21-6.72-9.53-17.77-16.02-24.96-4.53-5.03-11.17-6.36-14.07-9.93-2.37-2.93-2.53-7.56-5.04-10.96-11.55-15.62-25.5-30.21-36.86-46.12-.39,15.01,8.04,18.68,14.81,28.17,15.23,21.33,32.52,40.45,50.1,59.81l7.07,4ZM444.68,1667.35c-2.64-3.43-10.96-13.94-12.42-16.61-4.41-8.04-2.62-18.83-16.25-20.73,2.11,10.95,8.85,18.25,17.14,24.77,4.36,5.71,14.37,22.5,18.81,26.26,1.39,1.17,3.5,2.08,4.02-.02-2.04-6.07-8.45-9.95-11.3-13.66ZM297.98,1660c.54-3.73.02-6.93-3.96-8-.54,3.73-.02,6.93,3.96,8ZM1638.02,1706.01l29.03-23.96,14.93-22.05c-4.63,1.42-10.49,12.44-14.59,11.67-1.52-.28-3.25-3.16-4.42-3.21-.62-.03-8.49,7.35-9.15,8.47-3.23,5.49,1.55,9.58-2.29,14.58-7.25,4.7-7.38-5.33-15.62,1.4-1.38,1.13-2.49,2.89-3.88,4.09,4,2.77,7.12,3.23,5.98,9.01ZM547.96,1664.02l-3.99,1.01c-.31,4.03,2.46,11.57,8.02,10.96l-4.03-11.97ZM464.83,1691.16c-1.66-1.77-2.31-4.81-4.81-5.15.83,6,3.6,12.59,9.96,14,.93-5.06-2.72-6.26-5.15-8.84ZM1678,1702.02c-2.59-2.37-16.26,13.59-19.05,15.93-58.4,48.88-122.18,93.04-192.23,125.77-23.49,10.97-67.37,23.59-86.13,35.8-1.93,1.26-3.6-.22-2.57,4.47,10.93.12,19.99.96,30.54-2.44,96.51-31.15,192.53-103.19,264.29-171.62.99-.95,5.51-7.58,5.16-7.9ZM1631.99,1715.96l-.97-3.95c-4.51,6.58-13.71,8.44-18.1,11.91-4.14,3.27-3.22,8.31-12.2,9.83-5.76.98.24-7.3-5.68-5.72-4.17,1.11-38.24,26.31-44.88,31.13-5.48,3.98-10.76,9.29-16.16,12.82,7.64,2.45,7.44-2.81,9.46-3.91,1.66-.9,16.75-9.59,16.5-3.07s-25.75,18.89-31.84,22.12l-10.11,10.87c7.49-1.46,13.96-10.13,19.59-13.82,30.09-19.73,64.29-39.78,89.36-66.22,1.54-1.63,4.75-1.67,5.03-1.99ZM1495.99,1716.01h-3.98v5.98h3.98v-5.98ZM594,1788c.36.55,0,2.42,1.05,3.92,2.48,3.52,17.49,14.4,22.95,14.06-1.19-5.41-11.47-6.53-13.43-8.56-4.58-4.74,2.44-5.37-10.57-9.42-4.96-7.6-44.58-47.62-52.94-54.05-5.14-3.95-9.64-2.71-12.51-4.5-1.77-1.1-2.78-7.15-6.52-7.46l16.02,22.96c9.09,14.68,28.6,20.55,39.88,30.12,7.98,6.77,3.17,8.9,16.08,12.92ZM1514,1744.02c-4.18-.24-7.5-.78-9.96,2.98l4.93,2.99,5.03-5.97ZM1658,1756.02l-27.87,17.11c-3.43,9.73-11.47,7.43-16.86,11.14-16.05,11.04-56.42,45.82-71.38,50.61-6.49,2.08-11.66-.06-16.49,1.07-.93.22-7.45,11.03-12.85,13.6-8.93,4.25-18.9,2.04-29.23,8.77-7.77,5.06-8.77,12.35-12.92,15.62-1.77,1.4-37,16.27-40.35,17.12-12.02,3.03-17.47,2.74-30.97,7.03-32.63,10.36-65.5,19.75-97.08,32.9,2.82,3.71,6.74,3.33,10.77,2.91,8.38-.87,26.21-6.35,35.21-8.91,84.87-24.08,184.69-71.73,255.8-124.2,18.75-13.84,37.05-29.58,54.21-44.77ZM1458.02,1772l15.94-9c-3.48-6.33-18.29,6.6-15.94,9ZM1521.99,1782.02c-4.51-.77-8.37,1.78-9.99,5.96,1.39,1.16,11.82-5.09,9.99-5.96ZM1431.99,1784.01c-3.78.83-32.15,9.06-25.98,15.98,1.8,2.01,8.11-5.29,10.55-6.43,5.18-2.42,15.44-1.42,15.43-9.55ZM1063.99,1810.01c-19.99-3.08-39.87-7.18-59.67-11.33-5.72-1.2-20.51-9.39-24.3-1.65-1.98,4.05,4.28,2.97,6.41,3.52,15.89,4.07,33.15,10.15,49.11,12.91,7.04,1.22,28.15,6.87,28.45-3.45ZM1385.99,1802.01h-12s0,5.98,0,5.98c4.74.29,12.49,1.18,11.99-5.98ZM1358,1808.02c-10.57-3.74-20.01-7.15-19.99,7.97,7.83.74,16.11-.17,19.99-7.97ZM1472,1808.02c-2.78-2.52-20.75-2.73-17.98,2.95s15.96,2.95,17.98-2.95ZM1335.99,1814.01c-3.73-.52-6.92,0-7.99,3.97h7.99s0-3.97,0-3.97ZM988,1821.98l-5-4.09-4.99,3.12,9.99.97ZM1423.99,1838.02c-9.82-1.56-17.05,4.03-21.99,11.96l9.16-1.82,12.83-10.14ZM1135.99,1878.02c-9.91-.91-21.38,1.16-31.05.04-4.91-.57-8.37-3.63-12.05-3.95-45.18-3.91-82.87-7.56-127.7-16.3-17.98-3.51-35.78-12.11-55.18-9.79l39.96,11.01c57.95,12.52,119.4,23.42,179.05,20.97,2.43-.1,7.44,1.51,6.97-1.98ZM1349.99,1850.02c-16.08-1.48-28.44-4.38-39.99,9.96,8.58.33,17.04-1.66,25.26-3.72,4.11-1.03,12.62-2.28,14.73-6.24ZM876,1857.98c-1.07-3.97-4.27-4.5-8-3.96,1.07,3.97,4.27,4.5,8,3.96ZM1307.99,1862.02c-11.05-3.14-21.33-.23-31.98,2.97l8.81,3.01,23.17-5.98ZM1267.99,1868.02c-27.58,1.43-55.25,3.35-82.4,8.58-2.22.43-7.94.4-7.58,3.38,23.63,2.53,46.9-6.24,70.89-6.08l19.09-5.88ZM1153.99,1878.02h-11.98v1.96h11.98v-1.96ZM1345.99,1894.01c-1.13-1.27-16.09,4.23-13.98,9.98l12.11-.87,1.87-9.11ZM1790,1928.02l-7.43,3.29-16.56,14.68c9.73-.84,17.67-11.53,23.99-17.97ZM513.99,1932.03l-7.99-2.01,5.03,5.96h2.96s0-3.95,0-3.95ZM1242,1940.02c-4.22,1.11-15.63-3.44-13.99,3.95,6.31,2.39,10.9,3.15,13.99-3.95ZM1225.99,1944.03c-6-2.86-11.52-1.54-11.98,5.96l11.98-5.96ZM728,2083.98c-3.11-5.94-12.18-6.06-17.99-5.96,3.28,5.21,12.43,6.36,17.99,5.96ZM741.99,2088.01h-7.98s0,1.96,0,1.96l7.97,2.02v-3.98ZM830,2107.98c-.55-3.47-3.99-3.47-6.45-4.53-11.42-4.92-27.39-8.97-39.54-11.43.05,2.84,5.68,3.93,8.07,4.9,11.43,4.66,25.89,9.92,37.92,11.06Z"/>
  <path class="st0" d="M918,868c42.45-26.07,91.23-48.79,142.97-45.97,11.03.6,23.42,5.18,35.02,3.99l-11.99,5.96c4.85,1.18,10.85-1.3,15.07-1,31.86,2.24,48.38,14.38,76.87,22.09,2.56.69,5.84-1.26,8.03-.15,2.79,1.42,3.98,6.74,7.32,8.96,3.04,2.02,9.28.11,15.44,4.41,35.18,24.5,60.44,51.21,88.18,83.79,6.29,7.39,12.21,8.87,17.48,20.52,2.82,6.24,4.26,24.65,11.63,22.37l-4-10.98c1.15,1.16,7.09,6.2,7.31,6.64,5.63,11.5,22.16,69.37,20.6,80.21-.53,3.67-3.4,6.58-3.82,10.26-1.27,11.11,1.72,22.69-1.79,33.7l5.67,3.19.03-37.98c2.95-.17,3.52,7.18,3.74,9.23,1.4,13.24-1.41,23.59-1.85,35.66-.2,5.63,4.4,12.05.06,19.09l-6.05-2.96c1.76,12.02,8.19,6.67,5.59,21.49-1.9,10.83-8.95,36.57-12.59,47.39-2.33,6.93-18.05,39.13-21.91,44.09-.73.94-2.48,2.68-2.99,1.99-.42-11.14,6.24-14.29,7.39-25.59.22-2.2,2.36-6.81-1.39-6.39-12.11,27.96-36.63,69.98-62.23,86.79-4.44,2.92-5.89,5.61-11.79,3.21l1.99,5.97-7.94-3.92-4.07,5.16,2,4.76-5.98-2-1.17,6.23c-10.34-.85-14.25,6.6-20.27,9.36-15.86,7.27-20.61,3.16-35.66,4.35-35.9,2.86-71.6,12.89-107.89,10.03-11-.87-10.86-6.49-16.38-7.51-5.49-1.02-11.13-.33-16.64-.43,2.62,10.87,8.68,5.38,14.51,6.44,1.31.24,11.07,3.16,11.49,3.59.17.17-1.76,3-1.35,4.58.74,2.81,3.41,4.66,4.37,7.37,4.23,11.89,7.72,19.06-.97,30.51-7.76,10.22-21.22.04-29.39-4.29l-5.66,3.88c-12.49-8.76-29.93-10.92-45.02-12.07l2.03,3.97c-8.54,2.3-14.75-6.46-20.6-8.46-4.53-1.55-12.65,2.27-15.41-5.5l5.99-3.99c-6.94-2.45-14-5.27-20.71-8.32-4.08-1.85-17.12-12.51-15.27-3.75l23.97,16.06c.47,3.67-4.21,1.75-6.06,1.06-12.71-4.72-46.2-35.55-57.71-46.3-3.43-3.2-5.45-9.87-8.33-11.67-3.24-2.03-8.99-.48-9.88-5.1l3.89-.08c2.54-2.93-9.44-10.07-11.99-12.82-11.05-11.9-28.3-33.37-33.54-48.5-1.12-3.22-4.05-3.22.65-6.58l29.63,43.34c10.46,2.93,9.26,18.77,21.36,15.62-20.13-19.96-39.09-50.46-51.62-76.38-57.44-118.73-11.23-289.32,101.63-358.63h-5.99s0-3.99,0-3.99h5.98s.01,3.99.01,3.99ZM1303.98,985.99c.7-4.55-.82-8.53-5.98-7.97.96,1.61,5.1,9.9,5.98,7.97ZM1317.99,1010.01h-5.99s5.01,5.98,5.01,5.98l.98-5.98ZM1006,1343.98c-1.64-3.49-7.1-13.28-11.99-7.97-3.3,3.59,9.66,9.03,11.99,7.97ZM1116,1344h-46v4h43c.35,0,3.15-2.7,3-4ZM1036.01,1382.02l10.02-.99c3.61-1.97.16-5.06-2.94-5-2.13.04-21.53,7.9-21.08,8.96,4.52,5.11,12.07,2.53,17.98,3l-3.98-5.97Z"/>
  <path class="st0" d="M1043.99,361.99c-20.26.8-40.82-1.01-61.07-.07-50.55,2.34-123.91,19.53-170.89,39.11l-26.02,14.95c19.29-3.39,35.45-15.38,54.38-20.59,5.07-1.39,9.36-.98,14.13-1.87,5.06-.95,13.37-7.01,19.63-2.64,3.3,2.3-.71,13.95,9.81,2.12l-5.95-3.04c.14-9.31,8.27-3.47,14.74-4.03s11.78-5.33,17.26-6.92c8.47-2.47,50.16-5.9,58.83-4.84,6.13.75,10.85,4.97,18.01,3.82,5.64-.91,11.08-7.78,20.2-8.08s23.71,5.1,33.97,6.05c53.29,4.94,97.16,9.11,149.77,18.23,17.05,2.96,33.91,5.66,51.21,7.81,1.64,14.07-16.65,3.24-25.22,2.2-85.4-10.34-172.75-22.39-259.87-16.29-3.42.24-20.87,2.27-20.88,5.08-.03,2.88,21.22,5.98,13.99,10.03-6.68,3.75-38.66,7.6-47.07,6.96-1.68-.13-6.86,1.07-4.94-2.96,3.21-6.75,18.49-3.53,21.98-11.01-10.82.41-21.88,2.37-32.45,4.53-5.09,1.04-10.49,5.06-14.56,5.25-7.16.34-8.09-8.45-14.72-9.54l-4.25,7.73,9.98-1.98-.87,6.11c-4.35.72-28.88,9.37-29.08,12.88-.51,8.64,27.35-6.96,29.01-7.01l2.93,7-69.06,28.96c-3.82,1.24-3.75-2.93-2.86-4.88,1.58-3.48,10.37-3.68,7.95-11.04l-9.98-2.03c1.1,7.93-8.25,10.76-10.6,16.62-1.91,4.77,2.83,12.31-7.21,14.44-6.21,1.32-8.5-6.68-20.1,2.07-1.67,1.26-19.77,22.29-20.45,23.7-.82,1.71-.89,4.26-1.69,6.15l3.99,1.01c3.42-7.02,18.4-15.54,25.96-19.06,5.06-2.36,12.59-6.49,18.07-3.93-21.89,19.12-54.56,33.56-75.8,52.2-5.03,4.41-11.56,13.35-17.13,18.87-2.92,2.89-21.31,14.56-17.03,19.95,22.52-15.5,39.51-34.64,62.52-50.46,13.3-9.14,49.23-32.59,62.89-37.11,2.75-.91,5.75-.43,8.57-.43l-.87,10.13c-13.25,5.62-28.39,15.03-39.38,24.66-1.93,1.69-5.05.02-3.74,5.2,12.28-5.75,23.52-15.42,35.52-21.46,7.45-3.75,34.65-15.64,41.55-16.49,4.53-.56,3.1,2.23,2.65,5.7-93.85,46.11-176.47,114.36-238.73,198.25-2.21-2.95-1.04-8.72-.06-12.06,2.99-10.14,30.31-39.53,39.01-48.98,21.88-23.77,46.45-45.89,70.04-67.97.61-2.74-.14-3.78-2.94-2.94-3.03.9-14.99,7.98-17.74,10.27-14.07,11.71-32.33,33.81-46.25,47.75-10.03,10.05-22.27,18.77-32.08,29.92-5.77,6.56-20.09,29.32-23.85,32.17-7.69,5.82-6.18-6.33-15.06,2.93-26.63,27.78-71.93,110.97-88.41,147.58-11.15,24.75-5.91,33.19-10.53,55.47-2.28,10.98-13.34,31.14-17.64,44.36-5.2,15.96-8.25,39.06-14.46,53.54-1.84,4.29-4.67,6.94-8.02,9.98-3.66-24.63,11.37-48.82,12.97-73.01.65-9.91-2.89-19.64-1.88-27.8,1.38-11.21,21.06-22.39,19.94-37.17-10.28,2.03-11.67-9.01-19.02-13.97-3.42,3.08-4.79,7.38-6.52,11.45-5.73,13.53-10.2,38.09-16.85,49.15-1.76,2.92-4.62,4.21-7.61,5.37-3.49-4.62,16.93-46.94,20.08-54.9,21.68-54.76,41.93-96.72,73.38-146.53.33-.53,7.78-13.34,2.51-11.59l-25.68,36.33c-16.88,35-35.4,69.74-50.65,105.35-4.43,10.35-10.79,43.78-24.43,41.44-8.92-9.58,20.06-53.7,16.75-58.09l-23.09,45.89c.67,11.23-7.04,17.83-10.41,27.59-6.9,19.94-11.42,49.03-19.45,66.55-1.45,3.16-3.51,6.78-7.01,7.97.67-28.69,12.22-58.09,21.94-85.04,14.34-39.73,33.33-86.4,51.68-124.32,6.26-12.93,27.29-43.13,28.3-53.89.36-3.83-2.27-7.49-.99-10.69,6.86-17.12,35.68-42.46,48.13-55.99,16.63-18.07,24.96-41.84,41.89-62.11,21.95-26.27,54.88-56.37,81-79,51.4-44.53,111.79-84.01,176.03-104.95l-5.98,7.01c-.5,3.03-.06,3.49,2.99,3,2.32-.37,24.61-7.07,25.7-7.86,1.87-1.35,1.46-5.8,5.32-9.14,16.06-13.91,40.95-8.37,58.88-9.01,11.93-.43,25.46-6.26,36.2-7.92,6.93-1.07,14.94.91,21.78-.22,7.87-1.3,16.05-11.75,20.05-11.86,3.73-.1,13.42,6.86,20.23,7.79,8.15,1.11,40.98-1.97,43.94,2.06l.88,6.1ZM781.99,416.01c-2.92-2.57-7.58.78-6.23,5.64l-9.76,4.33c3.22.84,19.94-6.5,15.99-9.97ZM827.99,426.01c-3.32.88-18.94.86-17.98,6.96,4.1,5.39,3.33,1.25,5.86-.09,5.68-2.98,12.84-1.24,12.12-6.88ZM709.99,462.01c-3.65,1.58-14.77,4.68-13.98,9.98,4.16,2.18,17.06-6.94,13.98-9.98ZM632.01,521.99c8.74,1.36,15.31-5.39,13.97-13.99-.62-.82-15.63,9.1-13.97,13.99ZM695.99,520.01c-5.05-5.12-30.28,26.44-37.88,29.09l-16.09,18.9c8.69-1.3,7.9-8.4,10.29-11.62.22-.3,3.5.97,7.13-1.76,5.29-3.97,10.41-12.03,16.1-16.54,3.3-2.61,25.45-12.99,20.44-18.07ZM746,526.02c-3.73-.54-6.93-.02-8,3.96,3.73.54,6.93.02,8-3.96ZM736,532.02c-1.39-1.16-11.82,5.09-9.99,5.96,4.51.77,8.37-1.78,9.99-5.96ZM668,566.02c-14.23-2.68-10.49,5.69-14.61,11.38-1.61,2.22-10.91,7.72-13.78,10.75-14.35,15.19-26.83,32.31-41.69,46.77-1.01,5.34-24.25,28.96-21.92,31.07,2.76,2.5,5.63-1.12,7.38-3.64,16.22-23.3,38.27-49.77,57.58-70.38,8.55-9.12,18.5-16.83,27.03-25.95ZM527.98,711.99l4-11.99c-3.95.58-9.57,10.13-4,11.99ZM520,721.98c5.04.52,6.76-3.18,5.98-7.98l-5.98,7.98ZM461,736.04c-1.69.11-15,26.2-16.25,29.74-1.01,2.85-4.83,2.5.25,6.19,3.75-8.76,14.31-20.71,17.43-28.54,1.1-2.76,1.92-7.59-1.43-7.38ZM479.99,764.01c-4.42-1.16-6.79,5.67-8.32,8.64-7.71,14.98-13.37,31.62-21.64,46.38l5.96.97,2.13,13.92,5.86.08c1.2-10.09,6.33-19.17,7.81-29.22.89-6.04-1.07-14.69.19-19.36.53-1.97,5.56-2.43,7.17-7.28,1.51-4.55.79-9.47.85-14.13Z"/>
  <path class="st0" d="M283.66,1211.71c-1.1,1.79-6.15-.7-5.8,9.25.38,10.55,13.83,14.82,9.77,27.62-.81,2.55-3.84,3.79-4.64,5.51s2.74,32.03,3.52,36.39c2.15,12.01,9.68,28.71,10.6,39.41.85,9.9-2.28,17.59.3,29.69,1.21,5.69,20.38,49.49,23.57,54.43.62.96,2.55,2.59,3,1.98l.04-16c8.24,3.05,13.57,23.21,0,18-.51.64,2.11,13.97,2.96,16.02,2.7,6.53,3.46-4.99,8-4.02,4.05,2.63,10.85,12.97,4,15.97-4.16,1.82-3.25-5.99-6.95-5.98l6,21.99,4.97-3.83c5.31,4.07,11.57,14.38,2.99,16.79,25.49,31.65,38.92,70.36,61.39,104.56,1.3,1.98,4.3,2.53,4.58,3.87.83,4.02-.73,8.38.24,12.41,10.37-1.02,15.73,11.35,8.56,18.04-4.84,1.57-21.29-12.62-24.79-16.81-7.52-8.99-5.99-18.78-9.24-25.07-2.33-4.53-7.98-6.18-10.76-9.49-12.52-14.88-15.1-37.87-22.97-54.47-4.65-9.8-14.07-17.16-18.54-25.46-14.13-26.2-46.32-117.36-49.94-146.06-1.07-8.53.6-17.56-.63-25.37-1.06-6.71-6.5-13.47-7.66-22.34-1.49-11.45-.02-25.68-2.7-37.3-2.23-9.66-9.12-17.84-9.58-28.57-.37-8.61,4.66-14.84,4.23-21.92-.47-7.75-12.33-14.42-2.21-22.03,10.68-5.48,7.14,11.4,8.92,17.16,1.6,5.19,11.9,10.53,8.77,15.6Z"/>
  <path class="st0" d="M415.32,936.63c9.61,15.17-2.78,27.28-4.45,41.27-.52,4.37,1.62,8.31,1,12.78-.89,6.36-5.45,17.99-5.45,22.75,0,4.4,6.63,5.67,5.58,11.53-1.11,6.19-7.5-1.55-7.98-.96l-4.03,19.99-5.34-2.9c3.09-14.33,3.76-28.97,5.98-43.46,1.83-11.91,4.11-22.81,5.64-34.37,1.02-7.75,3.53-15.38,3.71-23.26-1.71-.02-2.99,1.83-3.76,3.22-2.56,4.6-10.32,44.14-11.68,52.32-4.5,26.96-4.74,54.77-10.63,81.56.25,8.61,6.42,7.19,7.67,9.29,2.29,3.83-1.51,13.34-1.66,18.53-1.16,40.6.65,87.66,6.32,127.84,4.13,29.26,13.71,58.13,17.75,87.23l-11.98-3.98,1,21.98c-5.37-13.39-14.04-32.12-10.6-46.59,1.05-4.42,6.02-6.84,5.31-11.91-1.13-8.07-12.54-18.52-13.24-30.99-.45-8.03,5.1-14.1,5.44-19.61.53-8.46-3.63-24.7-3.93-33.9-.13-4.08,2.87-8.53,1.99-12.99-5.58-.82-3.73.96-3.99,4.96-.46,6.96.35,14.08-.02,21.03-11.08-8.73-7.85-23.98-5.97-36.01l5.97,6c1.7-16.43-6.61-30.56-7.95-47.02-4.31-52.84,8.4-127.2,20.9-179.04,2.62-10.85,4.68-23.21,12.07-31.89,5.69,3.39-.29,8.02,1.18,12.68.77,2.43,4.43,2.78,5.15,3.91Z"/>
  <path class="st0" d="M450.02,606c10.86-4.38,5.15,13.87,0,9.99-2.34-1.77,2.71-10.25-3.98-7.97-7.15,14.5-18.16,26.62-26.87,40.15-31.27,48.58-54.66,101.25-78.28,153.81-1.09,2.42.18,4.91-3.86,4l-4.34-4.94c25.48-54.64,47.33-113.84,81.68-163.67,12.82-18.6,29.11-41.5,42.81-59.19,6.72-8.68,57.15-69.83,61.82-70.14l1.47,7.42c-18.56,20.98-34.52,44.07-52.52,65.49-4.47,5.32-21.78,17.97-17.93,25.05Z"/>
  <path class="st0" d="M326,814c1.77.41,3.78-.05,5.12,1.87-.17,23.67-16.07,44.51-20.67,67.58-4.8,24.08-8.14,49.18-12.92,73.08-1.26,6.27-7.24,13.2-7.52,16.53-.58,6.8,7.28,21-8,20.93l-1.99-15.98c-1.6,9.66-1.44,23.57-10,29.99-4.51-30.34,12.97-56.44,11.97-86.01-3.07,2.61-8.94,1.6-7.98-2.96.87-4.13,7.13-.07,9.76-4.12,7.54-11.58,11.07-40.11,17.27-54.87,7.84-18.68,20.79-22.45,24.96-46.04-6.46-1.51-10.22.86-2.97-9.99,7.47,1.14,3.75,5.57,2.97,9.99ZM307.98,878c-.75-6.51,8.01-12.61,1.01-17.99l-4.96,17.03,3.95.97ZM287.99,947.99l1.97-4.99-2.99-2.98h-2.96s0,7.97,0,7.97h3.97Z"/>
  <path class="st0" d="M457.99,1194.01l-1.99,7.97,9.99-1.97-.11,12.91-2.83,2.9-6.02-1.87c-3.98,10.07,9.36,7.31,13.15,14.86,10.6,21.15,5.09,39.12,8.29,59.71,1.77,11.37,19.14,41.84,13.68,50.1-1.28,1.93-3.46,2.49-5.57,2.95-3.34.35-6.48-.22-8.7-3.01-5.48-6.87-15.44-32.99-17.3-42.17-4.28-21.16.75-43.51-2.64-61.36-1-5.29-7.75-8.07-7.93-14.1l5.94-7.94-8.07-10.1c-.56-5.76,4.63-9.9,10.09-8.89Z"/>
  <path class="st0" d="M371.98,1243.99l-5.36-15.61c-13.33-60.81-9.56-190.1,8.72-250.03.77-2.52,3.73-9.58,6.64-10.33,1.48,19.55-5.31,37.98-7.7,57.27-2.59,20.97-5.33,44.65-6.37,65.63-2.53,51.08,2.15,101.94,4.06,153.07Z"/>
  <path class="st0" d="M1666,1525.98l65.72-123.26,25.25-66.7c5.59,3.85,5.8,8.26,4.59,14.5-2.85,14.63-18.97,49.06-25.84,64.2-12.93,28.5-29.87,60.92-46.89,87.11-2.71,4.18-16.81,28.87-22.83,24.15Z"/>
  <path class="st0" d="M2129.99,1182.01h-5.98s-6.04-128.98-6.04-128.98c-1.11-11.67-5.96-26.79-6.05-38.12-.03-3.27.3-4.9,3.07-6.86,8.62,3.13,15.48,11.32,15.15,21.04-.14,4.21-3.6,7.62-4.28,13.77-2.22,20.16,3.4,43.68,4.15,63.99.93,25.29-1.69,50.08-.02,75.16Z"/>
  <path class="st0" d="M1228,2180c-4.03,9.79-15.13,3.63-22.79,8.21-3.84,2.29-3.01,5.5-.16,5.81,2.42.26,4.88-3.57,8.01-3.96,4.62-.57,9.33.47,13.93-.07,7.33-.86,52.65-8.32,55-5.98l-1.94,7.04c-18.87,1.43-38.84,7.84-57.6,8.4-11.23.34-19.53.03-31.35.66-8.96.48-18.13-.57-27.09-.13,2.6-14.99,19.65-3.81,29.98-6,2.28-7.65-10.47-2.36-12-4l.34-7.64c1.45-.29,3.94-2.35,4.67-2.35h41Z"/>
  <path class="st0" d="M832,128.02c-15.92,12.96-39.25,15.13-59.04,21.94-27.43,9.45-55.34,22.74-82.37,31.66-1.85.61-5.72,4.13-6.58-.65-.74-4.08,4.08-4.39,6.4-5.56,36.03-18.11,82.51-35.04,121.17-44.83,6.61-1.67,13.54-2.91,20.41-2.57Z"/>
  <path class="st0" d="M455.99,1060.01l-8.1-.89c-2.03-1.38-1.99-3.8-1.97-6.02.08-10.89,4.78-35.46,7.06-47.12s5.83-23.34,10.01-33.97c14.54,27.82-7.23,58.91-7,88Z"/>
  <path class="st0" d="M285.99,1006.01c.98,5.84-2.17,11.33-2.15,16.99.01,5.29,3.16,10.88,2.27,15.96s-7.36,5.3-9.23,10.91c-2.44,7.3-.07,17.37-.86,25.12-13.95,4.42-3.75-19.25-6.05-29.6-.35-1.59-5.67-1.69-5.84-8.49-.09-3.49,2.51-23.1,3.83-24,1.78-1.21,5.44-.2,7.52-1.46s2.41-8.05,10.52-5.44Z"/>
  <path class="st0" d="M1425.98,378c-32.65-12.54-64.77-32.27-97.98-43-17.37-5.61-41.89-5.89-56-18.98,11.36-4.24,22.3,8.31,29.48,9.67,40.24,7.66,58.43,17.53,95.13,34.69,9.46,4.42,26.57,4.18,29.37,17.61Z"/>
  <path class="st0" d="M275.57,1083.39c.77-.46.19-7.68,6.39-.39-8.32,5.12-4.9,11.95-6.42,19.54-.71,3.56-2.91,6.78-3.37,10.61-1.77,14.73,6.38,45.08-4.03,57.59-5.63,6.76-11.68-7.49-.08-7.76-.62-9.85-6.23-20.07-6.2-29.98.04-11.01,7.16-21.43,5.43-33.78-.71-5.1-15.39-13.96-2.62-18.96l6.47,3.75c1.82.36,2.78.35,4.42-.63Z"/>
  <path class="st0" d="M1578,538.02c-.98.82,7.61,11.59.97,10.02-1.14-.27-18.89-10.95-20.02-11.99-6.18-5.68-6.84-16.15-10.9-23.07,6.4-5.89,21.15,1.77,26.94,7.03,2.52,2.29,3.61,5.74,5.92,8.08,4.46,4.53,15.98,7.84,8.05,13.91l-10.96-3.98Z"/>
  <path class="st0" d="M211.99,1593.99c-4.5,3.85-10.66-9.13-12.35-12.63-9.19-19-22.36-49.12-29.13-68.86-2.29-6.67-5.32-13.13-4.49-20.49l45.97,101.99Z"/>
  <path class="st0" d="M971.99,110.02l-129.98,17.96,19.56-7.41c35.9-9.95,73.31-11.43,110.42-10.55Z"/>
  <path class="st0" d="M1761.99,1203.99c3.76,3.6-9.53,70.17-13.08,79.96-1.15,3.18-2.07,9.4-6.9,8.04l14-88h5.98Z"/>
  <path class="st0" d="M1374.3,2171.71c-1.2-.7-1.17-6.7-5.28-5.7l-12.04,11.94-3.01-7.96c-4.9,6.23-24.82,4.12-21.96-4.97,1.56-4.93,15.87-2.49,20.78-3.23,9.38-1.42,24.4-10.13,31.34-.92,5.9,7.82-6.23,12.94-9.83,10.83Z"/>
  <path class="st0" d="M1021.99,399.99l1.16-8.02c21.44,2.4,47.05-.26,67.84,2.04,4.56.5,9.76,1.35,12.97,4.99-2.12,2.21-2.62,3.86-6.04,4.03-23.65,1.17-51.34-6.32-75.93-3.03Z"/>
  <path class="st0" d="M1324.01,193.97c-.48-3.54,4.53-1.97,6.73-1.74,9.37.99,41.02,10.65,48.01,16.01,6.17,4.73,3.63,9.82-3.65,9.85-18.65.06-34.08-19.44-51.09-24.12Z"/>
  <path class="st0" d="M1171.98,1752.03c-2.23,3.96-12.73,5.58-17.01,5.95-20.24,1.77-44.86.14-64.98-2,10.25-10.76,26.48-3.87,39-3.85,13.95.02,28.86-5.51,42.98-.1Z"/>
  <path class="st0" d="M204.54,631.55c.26.48,3.23.37,3.51,1.65l-1,6.86c-10.89,7.48-3.09-4.77-11.03-4.07-.21,7.61-4.04,14.49-9.03,19.99.4-15.61,14.41-43.61,23.34-56.66,1.9-2.77,4.45-6.06,7.65-7.33,5.51,10.66-17.02,33.08-13.44,39.55Z"/>
  <path class="st0" d="M1560,717.98c-1.85,1.73-9.39-3.87-10.97-6.01-5.35-7.26-11.22-23.32-17.38-32.62-2.77-4.19-18.54-19.56-15.64-23.35,6.59-3.03,8.84,1.24,12.82,6.17,12.96,16.07,21.38,37.72,31.17,55.8Z"/>
  <path class="st0" d="M317.02,440c2.43-.6,5.21,2.18,4.82,4.79-.46,3.12-32.78,46.46-37,51.05s-9.71,6.03-7.2-1.15c6.78-19.46,28.96-36.76,39.38-54.69Z"/>
  <path class="st0" d="M321.98,951.99c-3.5.47-1.87-4.53-1.97-6.96-.71-16.69,2.97-28.54,7.96-44.06l14.01-32.96c.41,29.45-15.86,55.39-20,83.98Z"/>
  <path class="st0" d="M1015.77,399.81l-56.75,2.21c-2.45-.3-2.08-6.97,3.98-8.02,9.92-1.72,37.14-5.25,46.1-4.09,6.84.89,10.06,3.45,6.67,9.9Z"/>
  <path class="st0" d="M1618.01,2051.99c-.73-12.79,5.37-8.25,11.45-11.49,7.51-4.01,16.98-10.97,24.39-15.65,1.16-.73,17.82-16.08,18.1-5.86.18,6.62-51.32,35.81-53.94,33Z"/>
  <path class="st0" d="M977,2180c2.01.42,5.59,4.37,8.76,4.92,6.74,1.17,24.15-5.32,26.23,7.06-2.47.06-4.65,1.79-7.13,1.85-9.29.26-41.06-5.83-51.33-8.46-3.73-.95-6.63-.49-5.53-5.38,8.57,1.2,21.07-1.65,29,0Z"/>
  <path class="st0" d="M231.97,578c-10.87-6.02,2.45-14.13,3.69-19.52,1.7-7.38-6.63-17,8.97-22.17l6.49,3.7c5.07,8.03-16.66,29.8-19.15,37.99Z"/>
  <path class="st0" d="M1172,413.98c-8.35-.62-18.31-1.04-26.44-2.54-8.23-1.53-14.7-5.13-21.45-6.59-2.62-.57-13.61,3.32-12.11-3.82.96-4.59,15.87-2.3,19.58-1.63,4.72.85,13.22,2.21,16.95,3.03,7.53,1.66,19.77,4.47,23.46,11.56Z"/>
  <path class="st0" d="M1662,163.98c-17.2-2.75-30.21-15.95-44.16-24.82-5.05-3.21-10.78-5.18-15.89-8.19-2.59-1.52-5.04.36-3.93-4.97,5.82-4.85,58.62,28.78,63.99,37.97Z"/>
  <path class="st0" d="M1277.98,178.04c2.11,2.55-.12,3.57-2.5,4.5-3.5,1.36-55.29-9.9-55.44-13.54,6.63-8,13.65,0,19.06.9,12.72,2.12,26.65,1.16,38.89,8.14Z"/>
  <path class="st0" d="M1550,559.98c-16.4-3.49-27.49-18.06-29.98-33.98,17.56,4.84,23.82,18.23,29.98,33.98Z"/>
  <path class="st0" d="M1227.57,454.35c.72,1.09,1.34,5.38-.55,5.63-12.34-6.16-29.23-6.67-43.12-8.88l-15.88-7.08c14.74-3.39,37.49,2.31,52.41,6.58,1.13.32,6.86,3.33,7.14,3.75Z"/>
  <path class="st0" d="M1030,112h-42l.88-8.11c2.62-3.84,30.96,2.11,37.81.43l2.43,1.57.89,6.11Z"/>
  <path class="st0" d="M549.98,1496c-14.83-13.99-25.06-34.39-29.96-54,12.9,15.61,25.82,33.75,29.96,54Z"/>
  <path class="st0" d="M242,1647.98c-3.54.5-5.66-.3-8.11-2.87-1.79-1.89-16.5-29.61-18.23-33.77-1.77-4.26-3.89-8.57-3.64-13.34l6.85,4.13,23.13,45.85Z"/>
  <path class="st0" d="M1528.01,423.99l-8,1.98c6.73,1.74,14.31,3.67,13.98,12.01-2.83,2.65-14.49-8.45-18.11-10.87-4.95-3.32-14.06-3.36-13.87-11.11l20.54-1.69c4.25,1.73,6.09,5.12,5.47,9.67Z"/>
  <path class="st0" d="M1051,364c-2.42-.69-4.12-6.28-2.99-7.98,1.26-1.89,33.31,1.38,38.52,2.45,2.71.56,10.74,2.38,11.47,5.53h-47Z"/>
  <path class="st0" d="M178,1485.98c-8.35.4-10.29-7.27-12.02-13.97l-5,5.98-4.73-3.24-.23-6.75,7.97,1.99-3.98-19.98c3.96-.78,4.76,1.84,6.39,4.59,5.13,8.67,6.95,22.16,11.6,31.38Z"/>
  <path class="st0" d="M1111.99,111.99c-6.54.47-12.4-2-18.95-2.15-4.57-.11-25.3,5.19-21.02-4.82,2.95-6.91,31.07.52,38.03-.06l1.94,7.04Z"/>
  <path class="st0" d="M197.98,1534c2.3,16.23,17.19,29.48,18.01,45.99-3.32,3.85-16.1-21.64-17.02-23.95-1.07-2.67-9.32-24.31-.99-22.04Z"/>
  <path class="st0" d="M1466,2132.02c-.47,11.18-11.93,3.13-16.61,4.27-4.55,1.11-12.37,14.67-23.39,9.68l21.86-17.2,18.14,3.24Z"/>
  <path class="st0" d="M1079.99,340.03c.55,2.84-3.83,2.64-5.92,3.01-13.85,2.48-26.65-1.23-40.05-4.03,14.49-8.27,31.23-3.5,45.98,1.02Z"/>
  <path class="st0" d="M1762,1318h3.99c-3.18-9.29,1.37-16.03,3.84-24.81l6.17-1.2-8.03,38.01h-5.95s0-12,0-12h-6s.01-7.99.01-7.99l5,2.05.99,5.94Z"/>
  <path class="st0" d="M87.98,1263.99c-3.21-.8-4.86-8.67-5.48-11.49-2.36-10.79-2.62-23.44-2.48-34.5,11.1,10.85,10.55,31.63,7.96,45.99Z"/>
  <path class="st0" d="M1247.99,129.99c-3.01.54-4.63,1.73-7.95,1.1-6.27-1.18-23.18-5.26-28.94-7.19-3.27-1.09-5.81-1.52-5.09-5.89l36.21,5.11,5.77,6.86Z"/>
  <path class="st0" d="M1642,516c-6.7,2.75-24.86-14.63-18.05-19.04,8.75-5.67,23.08,15.23,18.05,19.04Z"/>
  <path class="st0" d="M1549.31,124.18c9.54-2.83,14.93,6.09,18.65,12.82-6.34,9.48-31.44-9.03-18.65-12.82Z"/>
  <path class="st0" d="M1281.99,1782.01c6.88,7.07-21.56,14.7-25.98,13.98-2.56-14.56,16.35-11.15,25.98-13.98Z"/>
  <path class="st0" d="M303.99,1745.99c-2.39,2.73-15.21-14.4-16.48-16.5-2.92-4.8-5.8-9.56-5.49-15.49,5.77,2.51,25.77,27.64,21.97,31.99Z"/>
  <path class="st0" d="M306.02,1746c4.67,4.09,18.84,17.44,20.99,22,1.85,3.94,1.36,5.4-2.01,7.96-8.09-8.28-19.61-17.15-18.98-29.96Z"/>
  <path class="st0" d="M1115.99,314.02c.54,2.61-3.69,3.18-5.47,3.47-10.82,1.71-28.05-.09-36.52-7.47l41.99,4Z"/>
  <path class="st0" d="M1324.16,165.82c-1-1.48-1.55-6.63,2.62-5.63,4.75,1.14,29,7.02,29.18,10.81-2.54,7.31-30.86-3.78-31.8-5.18Z"/>
  <path class="st0" d="M602.09,232.06c17.72,5.72-18.56,16.68-21.1,23.94-1.51,3.25-4.7.43-4.97-1.02-1.5-8.04,25.58-15.56,26.08-22.91Z"/>
  <path class="st0" d="M655.01,762.05c7.98.13-6.96,24.95-11.98,23.94-9.26-1.85,6.42-23.51,11.98-23.94Z"/>
  <path class="st0" d="M1150,293.98c-2.24-2.25.1-3.61,2.5-4.5,4.96-1.83,29.6,2.13,35.46,5.52,0,6.34-33.49-.87-37.96-1.02Z"/>
  <path class="st0" d="M1126,2191.98c-3.91,5.71-11.43-3.06-13.24-3.48-1.62-.37-16.6,3.55-12.73-5.49,3.94-9.21,13.18,2.18,15.37,2.69,3.37.78,7.15-3.43,9.64.26,1.02,1.52,1.64,5.04.97,6.02Z"/>
  <path class="st0" d="M1229.99,199.99l-29.98-4.98c2.59-9.36,36.46-.5,29.98,4.98Z"/>
  <path class="st0" d="M1297.41,2180.43c3.57-1.08,18.06-1.83,16.58,4.55-3.21,6.25-23.56,7.65-21.98.05,1.58-1.72,3.01-3.88,5.4-4.6Z"/>
  <path class="st0" d="M1532,2088c9.81-1.09,17.98-7.64,27.99-7.99,4.67,4.18-23.86,16.44-27.98,13.99-.14-1.98.12-4.01,0-6-2.56.28-8.07.72-9.99-.99l9.98-5c.12,1.98-.12,4.01.01,5.99Z"/>
  <path class="st0" d="M1284,135.98c-11.13,2.97-21.63-1.23-31.99-4.97,8.1-6.67,25.28-2.05,31.99,4.97Z"/>
  <path class="st0" d="M322.01,438.01c-1.7-4.97.64-20.46,8.03-17.11,8.64,3.92,3.28,20.76-8.03,17.11Z"/>
  <path class="st0" d="M550,274.02c-.31,5.56-21.2,20.81-23.99,17.97-3.38-3.45,7.9-11.38,10.18-12.81,4.52-2.81,7.57-6.38,13.81-5.16Z"/>
  <path class="st0" d="M395.99,1853.99c-2.14,2.34-23.64-18.36-21.98-23.98,3.35-3.34,25.11,20.56,21.98,23.98Z"/>
  <path class="st0" d="M1729.98,1030c-9.01-7.13-10.29-21.36-9.96-32,9.13,6.94,9.6,21.46,9.96,32Z"/>
  <path class="st0" d="M1233.99,307.99c-9.03.62-19.02-.44-25.95-6.99,3.72-8.83,30.53,3.2,25.95,6.99Z"/>
  <path class="st0" d="M1016,124.02c-1.05,8.2-22.68,8.62-23.98,2.95-2-8.74,20.52-5,23.98-2.95Z"/>
  <path class="st0" d="M1710.02,968l-6.01-27.99c4.41-5.07,18,24.9,6.01,27.99Z"/>
  <path class="st0" d="M542,472.02c-3.96,9.34-11.3,20.18-21.99,21.97-1.17-6.12,19.1-24.67,21.99-21.97Z"/>
  <path class="st0" d="M1038,1765.98c-9.26,3.55-21.73,2.39-27.99-5.95,2.12-2.57,26.08-.4,27.99,5.95Z"/>
  <path class="st0" d="M1424,2144.02c-4.6,8.93-17.47,14.22-25.99,6.97,7.89-4.52,16.63-8.06,25.99-6.97Z"/>
  <path class="st0" d="M1240.13,311.84l-.12-5.83c5.46,2.38,24.34-.92,21.97,8.97-.95,3.97-3.67,1.81-5.43,1.53-5.06-.83-11.11-3.79-16.42-4.66Z"/>
  <path class="st0" d="M1625.41,2079.49c-1.11.9-3.91.62-5.12,1.7-1.59,1.42-12.2,15.27-14.28,5.78-.6-2.72,14.93-12.41,17.28-14.74l4.66,2.77c-1.56,1.06-1.27,3.46-2.55,4.49Z"/>
  <path class="st0" d="M1354,1746.02c-5.47,9.79-17.54,12.75-28,11.96,6.2-8.53,18.23-10.58,28-11.96Z"/>
  <path class="st0" d="M387.99,656.01c1.3,9.02-1.92,20.17-11.98,21.98-.82-6.92,3.02-12.94,6.81-18.22,1.67-2.33.04-4.92,5.17-3.76Z"/>
  <path class="st0" d="M395.99,918.01c.87.81-5.04,20.01-5.96,23.04-.86,2.85,1.25,3.55-4.01,2.94-2.49-8.4,1.44-16.82,3.81-24.8l6.16-1.18Z"/>
  <path class="st0" d="M1301.42,1279.45l-19.4,18.55,23.97-35.02c4.01-2.66,1.42,3.37.83,4.83-1.47,3.66-4.1,7.62-5.4,11.64Z"/>
  <path class="st0" d="M1721.37,1999.43c-1.91,2.15-15.82,14.86-17.36,7.55-.22-1.04,11.54-13.17,12.49-13.6,6.67-3,8.99,1.43,4.88,6.06Z"/>
  <path class="st0" d="M1122,155.98c-7.55-.23-15.21.56-22.76-.22-2.04-.21-9.4-.8-9.23-3.74,10.01-2.15,24.31-4.61,31.99,3.96Z"/>
  <path class="st0" d="M713.99,2108.02c.55,3.31-4.93,2.21-7.05,2.06-9.07-.67-18.38-3.63-22.94-12.06l29.99,10Z"/>
  <path class="st0" d="M873.99,1721.99c-1.73,1.66-23.34-8.1-23.99-13.97,8.65,1.4,22,3.65,23.99,13.97Z"/>
  <path class="st0" d="M1378,178.01l12.95-4.03c11.14,13.37-10.33,17.01-12.95,4.03Z"/>
  <path class="st0" d="M309.99,1341.99l-10.44-12.54-1.53-9.45c10.99,3.13,10.63,12.28,11.97,21.99Z"/>
  <path class="st0" d="M495.31,517.28c1.38-1.17,2.25-4.9,3.71-5.28,13.75,3.09-11.34,25.71-10.09,9.92,1.81-1.99,4.37-2.94,6.38-4.64Z"/>
  <path class="st0" d="M1529.99,649.99c-10.1.59-15.57-8.69-19.99-15.97,4.67-1.58,23.36,12.94,19.99,15.97Z"/>
  <path class="st0" d="M527.99,2011.99c-2.42,2.34-19.23-7.55-15.98-13.98,8.1-.57,15.43,5.96,15.98,13.98Z"/>
  <path class="st0" d="M1152,369.98c-8.3-.28-20.48,2.12-26-5.96,8.61.59,20.82-3.03,26,5.96Z"/>
  <path class="st0" d="M1311.99,143.99c-7.18.22-14.85,1.05-19.95-4.99,3-7.92,24.55,1.17,19.95,4.99Z"/>
  <path class="st0" d="M1736.01,1300.01l6.06.93c4.65,3.17-.9,14.22-5.07,17.03l-.99-17.95Z"/>
  <path class="st0" d="M1101.35,280.54c3.56-.08,6.39,1.9,8.61,4.46-5.42,6.22-12.45,6.28-17.92,0-.02-1.68,7.23-4.41,9.31-4.46Z"/>
  <path class="st0" d="M263.7,988.28c3.64,3.64.54,14.83-4.67,13.71-4.6-3.37-2.89-9.27-3.02-14l7.69.29Z"/>
  <path class="st0" d="M372,1825.98c-5.73,2.22-18.1-13.9-15.99-15.97,8.82.69,13.9,8.37,15.99,15.97Z"/>
  <path class="st0" d="M1073.99,2182.03c5.11,5.49-14.84,7.41-17.99,3.95,1.08-7.26,15.13-7.02,17.99-3.95Z"/>
  <path class="st0" d="M1096,2196.02c-2.75,6.98-12.85,8.69-17.99,2.95,1.62-9.32,11.69-1.44,17.99-2.95Z"/>
  <path class="st0" d="M1254,268.02l-2.99,7.93-12.96-8.96c4.25-6.15,10.63,1.11,15.95,1.02Z"/>
  <path class="st0" d="M1385.99,630.01l-5.14,10.13c-16.4-4.79-7.58-11.49,5.14-10.13Z"/>
  <path class="st0" d="M1511.76,508.22c1.38,2.39-.83,7.66-2.75,7.73-5.37.21-16.47-16.81-5.72-12.28,1.25.52,8.23,4.13,8.47,4.55Z"/>
  <path class="st0" d="M1452,207.98c-6.39.35-17.48.74-17.99-7.97,7.16-.79,14.58,1.02,17.99,7.97Z"/>
  <path class="st0" d="M1715.98,1062c-8.97-3.82-5.5-14.13-5.96-21.99,7.33,4.52,6.2,14.54,5.96,21.99Z"/>
  <path class="st0" d="M1322,146.02c6.91-2.5,12.75-3.09,17.96,2.98-4.53,5.86-14.94,3.07-17.96-2.98Z"/>
  <path class="st0" d="M666.01,1694.01c5.52-.73,13.05,0,13.98,6.96-4.47,8.97-16.46-4.89-13.98-6.96Z"/>
  <path class="st0" d="M1569.98,758c-7.51-3.08-14.39-9.2-13.96-18,3.63,1.38,16.51,14.97,13.96,18Z"/>
  <path class="st0" d="M1491.99,409.99c-7.18.68-14-3.03-15.99-9.97,3.02-2.29,17.37,3.51,15.99,9.97Z"/>
  <path class="st0" d="M405.98,1200c-8.15-1.87-8.32-8.52-7.97-15.99,8.78.36,8.57,9.23,7.97,15.99Z"/>
  <path class="st0" d="M1195.99,145.99l-17.97-4.96c3.78-8.03,22.03,1.04,17.97,4.96Z"/>
  <path class="st0" d="M261.98,1232c-4.96-.5-8.9-18.93-7.97-19.99,8.78.66,8,13.71,7.97,19.99Z"/>
  <path class="st0" d="M1735.99,2006.01c-.2,7.47-6.67,12.62-13.98,11.98-.45-7.78,7.35-10.9,13.98-11.98Z"/>
  <path class="st0" d="M1408.01,178.01c5.76-.65,10.49,2.93,13.95,6.99-4.59,6.38-15.64.89-13.95-6.99Z"/>
  <path class="st0" d="M1442,182.03c1.16,9.24-12.17-.81-16.66,0l-1.33-6.02,17.99,6.02Z"/>
  <path class="st0" d="M1157.99,2196.02l-13.46,5.5-10.53.45c4.71-8.5,15.93-5.61,23.99-5.96Z"/>
  <path class="st0" d="M413.99,336.01c-.55,7.75-7.35,13.27-13.97,15.99-2.55-2.85,11.28-18.8,13.97-15.99Z"/>
  <path class="st0" d="M1712.01,1083.99c.67-1.95-2.29-16.49,2.96-13.97,6.09,5.65,8.12,15.01-2.96,13.97Z"/>
  <path class="st0" d="M2117.98,1146c-7.43-3.81-6.06-13.14-5.96-20,8.4,3.5,5.81,12.52,5.96,20Z"/>
  <path class="st0" d="M1093.98,177.99c-3.31.83-.8-3.34-3.35-3.98s-6.15.68-8.68-.95c-8.05-13.61,14.05-6.3,12.03,4.93Z"/>
  <path class="st0" d="M1593.99,1614.01c-.03,8.34-7.63,11.16-13.97,13.99-2.57-3.08,8.67-15.72,13.97-13.99Z"/>
  <path class="st0" d="M1614,1598.02c-3.07,5.3-6.85,12.05-13.99,11.97-.6-8.1,6.56-13.14,13.99-11.97Z"/>
  <path class="st0" d="M1071.99,2198.03c5.24,5.41-16.89,4.64-17.95.97,4.73-5.84,12.11-2.31,17.95-.97Z"/>
  <path class="st0" d="M380.01,963.99c-1.33-1.59,1.06-17.22,5.97-17.99.49,6.09,3.48,17.25-5.97,17.99Z"/>
  <path class="st0" d="M1602,2058.02c-2.47,7.55-8.06,10.79-16,9.96,1.64-7.09,9.25-9.64,16-9.96Z"/>
  <path class="st0" d="M2135.99,1240.01c-.64,5.66,2.67,15.01-3.97,17.98-1.83-5.16-4.59-18.44,3.97-17.98Z"/>
  <path class="st0" d="M399.98,1127.99c-8.4-.68-9.11-9.63-2.98-13.95l2.98,13.95Z"/>
  <polygon class="st0" points="1311.99 161.99 1301.17 160.17 1300 154.01 1310.04 154.96 1311.99 161.99"/>
  <path class="st0" d="M1054.18,1837.83c-7.06-5.32,6.52-13.05,11.78-2.83.04,2.68-9.85,4.29-11.78,2.83Z"/>
  <path class="st0" d="M463.99,292.01c2.77,2.51-10.19,13.62-13.98,11.98-2.24-2.13,9.27-14.55,13.98-11.98Z"/>
  <path class="st0" d="M1114,2201.98c-3.04.13-5.9,2.36-9.01,2.12-11.89-.91,1.43-16.79,9.01-2.12Z"/>
  <path class="st0" d="M205.99,1659.99c-6.89-.48-11.16-7.57-9.98-13.98,5.65-2,11.32,12.57,9.98,13.98Z"/>
  <path class="st0" d="M277.98,1710c-7.76-1.55-7.04-7.9-9.98-13.98,9.1-.82,10.97,6.26,9.98,13.98Z"/>
  <path class="st0" d="M529.44,1986.58c1.25,1.27,3.51,6.46,2.55,7.41l-11.99-5.01c.29-5.96,6.14-5.74,9.43-2.4Z"/>
  <path class="st0" d="M545.99,770.01l-4.99,13.95c-7.7-3.47,2.21-17.19,4.99-13.95Z"/>
  <rect class="st0" x="1775.99" y="1266.01" width="10.02" height="7.98"/>
  <path class="st0" d="M839.99,568.01c.56,2.88-1.66,5.84-4.02,6.96-12.84,6.05-10.2-10.53,4.02-6.96Z"/>
  <path class="st0" d="M444,310.02c-2.54,6.64-7.32,11.43-13.98,13.98-2.62-3.11,8.91-15.88,13.98-13.98Z"/>
  <path class="st0" d="M1711.99,1026.01l.17,10.76-6.14,1.23c-.29-4.73-1.18-12.49,5.97-11.99Z"/>
  <path class="st0" d="M419.99,1291.99c-.43.42-6.73,1.13-6.55-2.44l-1.42-11.55c4,.48,10.08,11.91,7.97,13.99Z"/>
  <path class="st0" d="M265.98,975.99l-6-4.9,5.02-9.08c3.82,4.24,2.54,9.13.97,13.98Z"/>
  <path class="st0" d="M1283.99,2166.01c1.21,6.66-10.43,11.18-11.98,4.96-1.35-5.41,9.04-5.57,11.98-4.96Z"/>
  <path class="st0" d="M936.01,530.02c4.95-1.23,10.84-4.67,11.98,2.95-3.43,5.31-12.63,3.99-11.98-2.95Z"/>
  <path class="st0" d="M1286.01,208.01c3.26-1.48,11.95,2.3,11.95,4.99,0,4.71-15.31,4.7-11.95-4.99Z"/>
  <path class="st0" d="M1701.99,1996.01c1.42,6.34-4.41,9.77-9.98,9.98-.92-6.24,3.62-10.89,9.98-9.98Z"/>
  <path class="st0" d="M972.01,337.99c-1.6-8.29,13.88-7.12,13.95-2.99l-13.95,2.99Z"/>
  <path class="st0" d="M751.99,1787.99c-5.41-.18-11.4-3.56-9.98-9.98,6.24-.92,10.89,3.62,9.98,9.98Z"/>
  <polygon class="st0" points="450.02 1102 455.69 1109.35 451 1115.96 450.02 1102"/>
  <path class="st0" d="M339.99,1201.99c-7.05,1.23-5.74-9.83-5.98-13.98l5.98,13.98Z"/>
  <path class="st0" d="M617.99,1585.99c-6.24.92-10.89-3.62-9.98-9.98,6.34-1.42,9.77,4.41,9.98,9.98Z"/>
  <path class="st0" d="M1204.01,142.01l11.98,4.96c-3.33,7.25-14.72-2.51-11.98-4.96Z"/>
  <path class="st0" d="M497.98,1380c-.92.69-5.09-3.58-5.62-5.37-3.9-13.06,11.57-7.9,5.62,5.37Z"/>
  <path class="st0" d="M85.97,1330.01l2.02,13.98c-6.78,1.23-10.56-15.81-2.02-13.98Z"/>
  <path class="st0" d="M1195.99,391.99c-1.3,1.29-11.09-.06-9.98-4.96,1.73-7.67,14.55.39,9.98,4.96Z"/>
  <path class="st0" d="M461.97,1187.98c-4.14-.6-6.19-12.17-3.96-13.97,8.93.22,5.68,8.54,3.96,13.97Z"/>
  <path class="st0" d="M1397.99,484.01c4.83,6.9-8.4,9.85-9.99,2.96-1.39-6.04,8.83-4.61,9.99-2.96Z"/>
  <path class="st0" d="M1677.99,175.99l-11.95-4.99c4.14-8.09,14.6,2.55,11.95,4.99Z"/>
  <path class="st0" d="M451.99,1335.99l-6.15-1.17-1.83-8.81c7.56-1.2,8.73,3.44,7.98,9.98Z"/>
  <polygon class="st0" points="122.02 1303.99 123 1292.04 128.1 1299.01 122.02 1303.99"/>
  <path class="st0" d="M1052,430.02c-2.98,6.94-10.73,3.3-15.98,1.95,2.68-6.06,11.32-3.35,15.98-1.95Z"/>
  <path class="st0" d="M1275.99,2209.99l-8-.98-1.98-5,6.79-1.88c3.44,1.72,3.6,4.24,3.19,7.86Z"/>
  <path class="st0" d="M87.03,936.01c5.41-1.23,6.84,8.87,1.94,9.98-5.41,1.23-6.84-8.87-1.94-9.98Z"/>
  <path class="st0" d="M1171.99,112.01c.47,7-6.64,6.29-11.98,5.98-.47-7,6.64-6.29,11.98-5.98Z"/>
  <path class="st0" d="M1079.02,148.02c6.8-1.83,9.18,6.55,3.96,7.96-6.8,1.83-9.18-6.55-3.96-7.96Z"/>
  <polygon class="st0" points="1173.99 2184.03 1174.01 2189.99 1163.99 2189.99 1164.01 2184.03 1173.99 2184.03"/>
  <path class="st0" d="M1026,2180.02c5.05-.91,10.14-4.64,13.96.98,0,3.68-13,5.06-13.96-.98Z"/>
  <path class="st0" d="M1317.02,2166.02c6.8-1.83,9.18,6.55,3.96,7.96-6.8,1.83-9.18-6.55-3.96-7.96Z"/>
  <path class="st0" d="M1719.99,209.99c-3.27,1.4-11.89-2.21-11.95-4.99-.12-5.39,13.86-1.16,11.95,4.99Z"/>
  <path class="st0" d="M62.02,1142c5.75,2.31,8.97,9.5,2.98,13.96l-2.98-13.96Z"/>
  <path class="st0" d="M81.99,1154h-5.98c-.1-4.53-1.09-9.12,2.99-11.96,4.08,2.84,3.09,7.43,2.99,11.96Z"/>
  <path class="st0" d="M984,1761.98l-15.99-2.97c4.4-5.67,13.28-2.66,15.99,2.97Z"/>
  <path class="st0" d="M299.98,1724c-6.16-1.57-8.39-5.62-7.97-11.99l7.97,11.99Z"/>
  <path class="st0" d="M1175.88,122.16l.11,5.83c-4.04.28-7.57.62-9.98-3.02l2.94-4.81,6.92,1.99Z"/>
  <path class="st0" d="M451.99,1164.01c1.77,1.27,3.1,11.04-2.96,9.98-6.67-3.28-.76-12.64,2.96-9.98Z"/>
  <polygon class="st0" points="994.01 433.99 997.25 428.24 1002.98 428.01 1005.96 431 994.01 433.99"/>
  <path class="st0" d="M1113.02,360.02c7.92-2.13,7.47,6.73,1.95,7.97-4.69,1.05-6.85-6.66-1.95-7.97Z"/>
  <path class="st0" d="M1277.99,1822.01l.02,5.98h-10c-.55-6.12,5.04-6.52,9.98-5.98Z"/>
  <polygon class="st0" points="1523.99 523.99 1516.02 514 1525.13 517.93 1523.99 523.99"/>
  <path class="st0" d="M1319.02,452.02c7.09-1.84,8.96,6.86,3.95,7.97-3.5.78-9.55-6.52-3.95-7.97Z"/>
  <path class="st0" d="M324,1758.02c3.92-1.09,10.66,2.97,9.99,6.95-1.35,8.08-11.04-5.93-9.99-6.95Z"/>
  <path class="st0" d="M807.98,1221.99c-4.62-2.51-6.14-11.24-5.96-15.99,6.05,2.78,6.36,10.31,5.96,15.99Z"/>
  <path class="st0" d="M1043.99,2190.01l.02,5.98h-10c-.55-6.12,5.04-6.52,9.98-5.98Z"/>
  <path class="st0" d="M1759.99,1061.99h-3.96c.09-1.91-1.44-3.82-1.56-5.44-.8-11.25,8.15-4.93,5.52,5.44Z"/>
  <path class="st0" d="M81.97,1168.01c2.26,5.75,2.36,9.24-3.95,11.99.9-4.13-3.16-13.62,3.95-11.99Z"/>
  <path class="st0" d="M481.99,918.01c.51,4.95.15,10.53-5.98,9.98-.51-4.95-.15-10.53,5.98-9.98Z"/>
  <path class="st0" d="M1150.01,323.99v-5.98c4.18-.25,7.49-.76,9.95,2.99-2.46,3.75-5.77,3.24-9.95,2.99Z"/>
  <polygon class="st0" points="441.97 1370.01 441.01 1379.99 436.01 1370.01 441.97 1370.01"/>
  <path class="st0" d="M1157.99,159.99h-9.98c-.18-8.21,10.16-8.21,9.98,0Z"/>
  <path class="st0" d="M997.99,446.01c.18,8.21-10.16,8.21-9.98,0h9.98Z"/>
  <path class="st0" d="M343.99,404.01c.25,4.18.76,7.49-2.99,9.95-3.75-2.46-3.24-5.77-2.99-9.95h5.98Z"/>
  <path class="st0" d="M1123.99,289.99l-9.98-2.02v-3.96c4.94-.56,10.53-.12,9.98,5.98Z"/>
  <path class="st0" d="M951.99,844.02c-2.41,4.4-11.51,5.39-15.98,5.96,2.57-5.19,10.78-6.65,15.98-5.96Z"/>
  <path class="st0" d="M1435.99,195.99c-19.27.44-3.35-11.55-.01-2.96v2.96Z"/>
  <path class="st0" d="M1271.99,435.99c-6.78.89-8.02.33-9.99-5.97,4.96-.49,10.54-.19,9.99,5.97Z"/>
  <path class="st0" d="M1254.01,194.01c19.27-.44,3.35,11.55.01,2.96v-2.96Z"/>
  <rect class="st0" x="1142.01" y="344.01" width="7.99" height="5.98"/>
  <rect class="st0" x="1122.01" y="454.01" width="7.99" height="5.98"/>
  <path class="st0" d="M929.99,1704.01v2.96c-3.35,8.59-19.27-3.4,0-2.96Z"/>
  <path class="st0" d="M1621.99,1467.99h-7.99s5-7.95,5-7.95c3.09,2.12,3.46,4.28,2.99,7.95Z"/>
  <path class="st0" d="M413.99,1217.99h-5.98s0-7.98,0-7.98h2.96c3.14,2.11,3.49,4.29,3.02,7.98Z"/>
  <path class="st0" d="M1257.99,415.99h-7.98s0-5.98,0-5.98c3.69-.47,5.87-.12,7.97,3.02v2.96Z"/>
  <path class="st0" d="M887.99,1674.01v5.98c-3.69.47-5.87.12-7.97-3.02v-2.96s7.97,0,7.97,0Z"/>
  <path class="st0" d="M1057.99,111.99h-7.98s0-5.98,0-5.98c3.69-.47,5.87-.12,7.97,3.02v2.96Z"/>
  <path class="st0" d="M929.99,532.01v5.98s-7.98,0-7.98,0v-2.96c2.11-3.14,4.29-3.49,7.98-3.02Z"/>
  <path class="st0" d="M809.99,301.99l-9.98-.98,6.96-5c2.14,1.8,3.66,3.04,3.02,5.98Z"/>
  <path class="st0" d="M1050.01,1748.01c6.4-1.01,11.17,3.42,4.99,7.95l-4.98-4.99v-2.96Z"/>
  <path class="st0" d="M1423.99,1732.01v5.98s-7.98,0-7.98,0v-2.96c2.11-3.14,4.29-3.49,7.98-3.02Z"/>
  <path class="st0" d="M1106.01,457.99v-5.98c10-.75,10,6.73,0,5.98Z"/>
  <path class="st0" d="M817.99,468.01v2.96c-9.61,9.01-12.1-3.68,0-2.96Z"/>
  <path class="st0" d="M1611,1472.04c3.92-.05,3.59,9.21-1.97,7.95s.49-7.93,1.97-7.95Z"/>
  <path class="st0" d="M445.98,1318l-5.97-5.03,2.99-4.93c3.76,2.46,3.22,5.78,2.98,9.96Z"/>
  <path class="st0" d="M427.99,928.01c2.56,2.75-3.54,10.6-5.98,7.98-2.56-2.75,3.54-10.6,5.98-7.98Z"/>
  <path class="st0" d="M1695.99,954.01v7.98c-7.96-.05-7.86-7.98,0-7.98Z"/>
  <path class="st0" d="M997.99,475.99c-2.75,2.56-10.6-3.54-7.98-5.98,2.75-2.56,10.6,3.54,7.98,5.98Z"/>
  <path class="st0" d="M1482.01,2121.99c-3.81-3.54,8.01-8.95,7.95-2.99-.02,2.06-6.62,4.23-7.95,2.99Z"/>
  <path class="st0" d="M249.99,1127.99h-3.98s0-9.99,0-9.99c4.52,1.21,4.26,6.18,3.97,9.99Z"/>
  <path class="st0" d="M1131.99,314.01c1.24,1.33-.93,7.93-2.99,7.95-5.96.06-.56-11.76,2.99-7.95Z"/>
  <path class="st0" d="M323.99,782.01c1.24,1.33-.93,7.93-2.99,7.95-5.96.06-.56-11.76,2.99-7.95Z"/>
  <rect class="st0" x="1784.01" y="1224.01" width="3.98" height="7.98"/>
  <path class="st0" d="M863.99,556.01c.52.47.07,2.71-.98,4-7.37,9.06-6.23-10.42.98-4Z"/>
  <polygon class="st0" points="1129 1738.04 1131.99 1741.03 1129 1745.96 1126.01 1742.97 1129 1738.04"/>
  <path class="st0" d="M663.99,754.01c.52.47.07,2.71-.98,4-7.37,9.06-6.23-10.42.98-4Z"/>
  <path class="st0" d="M1117.99,523.99h-5.98s0-5.98,0-5.98c3.64-.65,6.62,2.2,5.98,5.98Z"/>
  <path class="st0" d="M446.01,1139.99c-1.34-1.44.58-7.95,3.97-7.99l1.98,5c-.99,1.87-4.83,4.19-5.95,2.99Z"/>
  <path class="st0" d="M1665.99,1532.01c-.03,7.33-5.95,7.33-5.98,0h5.98Z"/>
  <path class="st0" d="M1778.02,1210v-9.99s1.95,0,1.95,0c1.19,4.33,3.69,8.16-1.95,9.99Z"/>
  <path class="st0" d="M1087.99,1731.99h-5.98c.03-7.33,5.95-7.33,5.98,0Z"/>
  <path class="st0" d="M994.01,1756.01c3.02-3.02,8.53,5.95,2.99,5.95-1.32,0-4.14-4.8-2.99-5.95Z"/>
  <path class="st0" d="M1520,2088.02c-1.07,3.97-4.27,4.5-8,3.96,1.07-3.97,4.27-4.5,8-3.96Z"/>
  <path class="st0" d="M1749.99,1472.01c1.46,5.99-3.16,8.05-7.97,9.99l.93-8.05c1.64-2.61,4.15-2.04,7.04-1.94Z"/>
  <path class="st0" d="M1804.01,1329.99c-1.01-6.4,3.42-11.17,7.95-4.99l-4.99,4.98h-2.96Z"/>
</svg>